<ttFont>
          <CharString index="0">
            rmoveto
            -4.0200042724609375 332 -212.99000549316406 116.99000549316406 -235.99000549316406 146 callgsubr
            -350 -2 -195 -248 -332 vvcurveto
            -370.00999450683594 190 -219.97000122070312 348 -23 callgsubr
            171 52.97999572753906 61 75 vhcurveto
            129 callsubr
            -152 -26.009994506835938 -81 hhcurveto
            -175 -117 85.00999450683594 193.99000549316406 -12 hvcurveto
            674.0200042724609 hlineto
            7.9900054931640625 51.02000427246094 3 76.99000549316406 86.02000427246094 vvcurveto
            -290.02000427246094 -41 rmoveto
            -389.97999572753906 hlineto
            203 22 80 63 115 hhcurveto
            140 43 -99 -167 -10.020004272460938 hvcurveto
            endchar
          </CharString>
          <CharString index="1">
            233 -12 rlineto
            -304.99000549316406 vlineto
            -22 -59 -78.00999450683594 -16.020004272460938 -118 hhcurveto
            -263.99000549316406 -120.00999450683594 245 307 318.00999450683594 164 -81 callgsubr
            265.02000427246094 222 100.99000549316406 -35 -46 96.00999450683594 hvcurveto
            10 273 rlineto
            26 -134 -65 34 -231 hhcurveto
            -426 -333 -239 -546 -466 264.00999450683594 -302.97999572753906 462.99000549316406 325.02000427246094 128.97999572753906 100.97999572753906 5 -33 callsubr
            hvcurveto
            730.0099945068359 return
          </CharString>
          <CharString index="2">
            2 callsubr
            -34 -84.00999450683594 -38 -64 callgsubr
            hhcurveto
            -120 -55 35 219 hvcurveto
            663 -15 callgsubr
            -666.0099945068359 vlineto
            -293 48.99000549316406 -196.97000122070312 326 111 138 49.99000549316406 59.99000549316406 -66 callsubr
            vhcurveto
            -52 vlineto
            -48.97999572753906 26.990005493164062 -8.990005493164062 49 vhcurveto
            206 1155.990005493164 -312.02000427246094 return
          </CharString>
          <CharString index="3">
            120 callgsubr
            hlineto
            -567.0099945068359 1537.990005493164 rlineto
            -322.00999450683594 hlineto
            -561.9700012207031 -1537.990005493164 rlineto
            341.9700012207031 hlineto
            101.00999450683594 321.97999572753906 rlineto
            559 hlineto
            -82 callgsubr
            -321.97999572753906 rlineto
            -589.9900054931641 550.9900054931641 rmoveto
            163 522 -55 callsubr
            157 43 -157 164.99000549316406 -522 rlineto
            -414.99000549316406 hlineto
            endchar
          </CharString>
          <CharString index="4">
            310.99000549316406 212 149.97000122070312 274 247 -179 109 -239 126.00999450683594 hvcurveto
            -101 callsubr
            return
          </CharString>
          <CharString index="5">
            rmoveto
            -139 -609.0200042724609 -77 -328.99000549316406 33 callsubr
            -58 callsubr
            -173.02000427246094 609.0200042724609 rlineto
            -337.97999572753906 hlineto
            386.99000549316406 -1140 rlineto
            134 hlineto
            -255 -65 -141 0 -99 hhcurveto
            -23 -68 13 6.9900054931640625 -22 hvcurveto
            -252.99000549316406 144 callsubr
            12 110 -11 30 hhcurveto
            30.990005493164062 -66 callsubr
            10 11.020004272460938 37 hvcurveto
            152 45 146.97999572753906 135 -66 callsubr
            275.99000549316406 355 1170 rcurveline
            -335.00999450683594 hlineto
            endchar
          </CharString>
          <CharString index="6">
            -185 98 -78 47 109 vvcurveto
            94 59 61.99000549316406 169 152 105.99000549316406 127 callgsubr
            74.02000427246094 vhcurveto
            52 246.99000549316406 rlineto
            35 -54 -147 53 -192 hhcurveto
            -285.97999572753906 -245 -110 -299.99000549316406 -249.02000427246094 198 -134.99000549316406 180 -89 hvcurveto
            233.99000549316406 -116 61 -44 -106.99000549316406 vvcurveto
            -69 callgsubr
            -54 -53 -169 -163 -144 49 47 -84.99000549316406 vhcurveto
            return
          </CharString>
          <CharString index="7">
            rmoveto
            -173 -894 -51.02000427246094 -354.02000427246094 -62 354.02000427246094 -234 894 rlineto
            -284 hlineto
            -220 -894 -61 -370.00999450683594 -52.97999572753906 370.00999450683594 -188 894 rlineto
            -319 hlineto
            408 -1537.979995727539 rlineto
            303.97999572753906 hlineto
            219.02000427246094 848.9700012207031 45 329.00999450683594 48.99000549316406 -328 214.02000427246094 -849.9799957275391 rlineto
            326 hlineto
            397.99000549316406 1537.979995727539 rlineto
            -317.99000549316406 hlineto
            endchar
          </CharString>
          <CharString index="8">
            rmoveto
            241 callgsubr
            vlineto
            69 61 97 25 58 1 rrcurveto
            131 3.9900054931640625 37 -64 -188 vvcurveto
            -647.9900054931641 312 715 vlineto
            333.99000549316406 -115 118 -241 94 callgsubr
            -140 -3.9900054931640625 8 callsubr
            -79 -77 -58 -6 122 rcurveline
            -283 hlineto
            return
          </CharString>
          <CharString index="9">
            228 29.979995727539062 -58 -106 -120 -46 callsubr
            -48 -168 -183 -60.99000549316406 41 callgsubr
            111 62 18.990005493164062 32.99000549316406 23 20.990005493164062 hvcurveto
            -1 20.009994506835938 20.990005493164062 -0.9799957275390625 21.020004272460938 hhcurveto
            return
          </CharString>
          <CharString index="10">
            -77 callsubr
            154 vlineto
            92 -56 callsubr
            -14.990005493164062 -1 142 hvcurveto
            468.99000549316406 -4.0200042724609375 301.02000427246094 301.99000549316406 519 vvcurveto
            466 -236 270.99000549316406 -510 vhcurveto
            -166 -113.99000549316406 -16 -89.00999450683594 hhcurveto
            return
          </CharString>
          <CharString index="11">
            29 -366 -115 228 -567.0099945068359 895 rlineto
            -294.99000549316406 -77 callsubr
            296 740.9900054931641 hlineto
            -34 363 120.00999450683594 -243 542.9900054931641 -861 rlineto
            319 -73 callgsubr
            -296 return
          </CharString>
          <CharString index="12">
            -386.99000549316406 -182 -264 -336 -326 177 -245.97999572753906 355 144 136 44.99000549316406 68 70 hvcurveto
            55 callgsubr
            185 rlineto
            -25 -46 -98 -22 -104 hhcurveto
            -162 -124 114.00999450683594 -16 callsubr
            7 hvcurveto
            229 6 99 callgsubr
            77 131 hhcurveto
            106 64 -15.009994506835938 -29 -27 callgsubr
            hvcurveto
            39.02000427246094 241 rlineto
            return
          </CharString>
          <CharString index="13">
            -190 hlineto
            -95 -40 13.990005493164062 -15 callsubr
            34 13.990005493164062 36 29 23 hvcurveto
            -5 31 34 -2 34 hhcurveto
            320 187 129 246 48 -7 -55 callsubr
            -12.990005493164062 37.99000549316406 hvcurveto
            188.99000549316406 hlineto
            return
          </CharString>
          <CharString index="14">
            -44 callgsubr
            993.0099945068359 250.97999572753906 -675 408 467.99000549316406 241 -467.99000549316406 378 17 callsubr
            vlineto
            endchar
          </CharString>
          <CharString index="15">
            311.99000549316406 return
          </CharString>
          <CharString index="16">
            rmoveto
            253 2 111.99000549316406 122 148 hhcurveto
            67.99000549316406 144 callgsubr
            -28.020004272460938 41 hvcurveto
            -615 171 callgsubr
            -47 -81 -28.020004272460938 -86 hhcurveto
            -135 -90.00999450683594 -64 callsubr
            254 2 hvcurveto
            endchar
          </CharString>
          <CharString index="17">
            -88 59 -124.00999450683594 25.990005493164062 -148.99000549316406 146 callgsubr
            -299.00999450683594 -3.9900054931640625 -194.99000549316406 -111 -266.02000427246094 vvcurveto
            -139 -47 callsubr
            -116 144 -62 vhcurveto
            return
          </CharString>
          <CharString index="18">
            -96 587.9799957275391 200 733 192 hstemhm
            720.9900054931641 259.99000549316406 -212.98001098632812 273.97999572753906 hintmask 11010000
            162 callgsubr
            819 rmoveto
            6 -184.02000427246094 rlineto
            -12.990005493164062 176 callsubr
            -34.02000427246094 136.99000549316406 hhcurveto
            326 145 162.02000427246094 -47 callgsubr
            117 -87.99000549316406 113.00999450683594 -162.02000427246094 86 callsubr
            hvcurveto
            hintmask 11100000
            151 81 38 94 100 vvcurveto
            135 -107.00999450683594 -56 callsubr
            -262 -109 -177.99000549316406 -48 -64.97999572753906 -77 vhcurveto
            66 -157.02000427246094 rlineto
            53 86 -61 callsubr
            25 67.02000427246094 hhcurveto
            98 59 -33 -66 1 hvcurveto
            1.9900054931640625 -74 -70 -60 -93 -28 -37.99000549316406 -9.020004272460938 -38 -6.9799957275390625 -48.99000549316406 -7 -1 -185 rcurveline
            hintmask 11010000
            159 32.99000549316406 rlineto
            75 callgsubr
            -22 45.02000427246094 -58 -62 vvcurveto
            -99 119 callsubr
            -54.99000549316406 -172 -1 vhcurveto
            -120.00999450683594 -60.99000549316406 16 15.020004272460938 -64 hvcurveto
            endchar
          </CharString>
          <CharString index="19">
            -25 -515.9900054931641 183.99000549316406 332 242.99000549316406 165.989990234375 190.99000549316406 314.00999450683594 226.00999450683594 -176.99998474121094 193 return
          </CharString>
          <CharString index="20">
            rmoveto
            97 268 41 callsubr
            34 callsubr
            -94 -258.99000549316406 -56 12 -58.99000549316406 6 -63.02000427246094 -2 rlinecurve
            -412 -12 -301 -230 -10 -527.0099945068359 -6 -336 134 -262 238 132 callsubr
            -88 -240 rcurveline
            62 callsubr
            -10 callgsubr
            83 226.97999572753906 64 -15.970001220703125 69 -9.009994506835938 74.02000427246094 2 rlinecurve
            406 7.9900054931640625 290 245 10 525.9900054931641 7 345 -141 263 -241.99000549316406 110 rrcurveto
            -694 -723 rmoveto
            391 175 147 212 35 34 callsubr
            -5 -9.009994506835938 30 vhcurveto
            -349 -960 rlineto
            -90.00999450683594 54 callgsubr
            -45 158 181 vvcurveto
            371 -536.9900054931641 rmoveto
            -47 114 callsubr
            7.9900054931640625 16 -38 hvcurveto
            354.02000427246094 971.0200042724609 rlineto
            -61 callsubr
            -91.02000427246094 48 -161 -191 vvcurveto
            -381.00999450683594 -143.99000549316406 -170.99000549316406 -226.02000427246094 vhcurveto
            endchar
          </CharString>
          <CharString index="21">
            79 callgsubr
            33.02000427246094 180 161 87 112 rlinecurve
            return
          </CharString>
          <CharString index="22">
            265 -18 callsubr
            1074.990005493164 -73 callsubr
            -52 callsubr
            return
          </CharString>
          <CharString index="23">
            -107 240 callsubr
            334.99000549316406 176 218.010009765625 237.99000549316406 return
          </CharString>
          <CharString index="24">
            -74 callsubr
            -57 callsubr
            return
          </CharString>
          <CharString index="25">
            74 -18 195 callsubr
            -220.98001098632812 247.99000549316406 hstemhm
            180.97999572753906 -68 callgsubr
            375.99000549316406 -68 callgsubr
            hintmask 00000000
            hintmask 10110000
            1305.990005493164 232 rmoveto
            -22.020004272460938 -37 -10 callgsubr
            -5 -13 hhcurveto
            -22 -21 137 callgsubr
            62 hvcurveto
            859.0099945068359 -312.00999450683594 vlineto
            hintmask 01110000
            -840 vlineto
            -38 -29 callgsubr
            -69 -29.990005493164062 -59 hhcurveto
            -149.02000427246094 -54.99000549316406 70 181.99000549316406 hvcurveto
            656.0200042724609 -312.00999450683594 -1510.990005493164 282.00999450683594 vlineto
            -29 422.99000549316406 rlineto
            -51.02000427246094 55.99000549316406 -64 callsubr
            -16.970001220703125 100 hhcurveto
            145 80 -65 callsubr
            57 39 hvcurveto
            hintmask 10110000
            -98 4.0200042724609375 57 -40 -47 callsubr
            hhcurveto
            142 98 -28 callsubr
            21.009994506835938 137 callgsubr
            hvcurveto
            -31.009994506835938 145 rlineto
            endchar
          </CharString>
          <CharString index="26">
            504 0 51 callsubr
            1106 220.99000549316406 hstemhm
            168.97999572753906 619 -601.989990234375 -58 callsubr
            543.989990234375 606 -361.97999572753906 -58 callsubr
            hintmask 11010100
            1351.990005493164 51 callsubr
            rmoveto
            157 132 118 243.02000427246094 5 250.99000549316406 rrcurveto
            482.02000427246094 9 -293.99000549316406 219 -429 hhcurveto
            -382.02000427246094 -339.99000549316406 -194 -507 -10 hvcurveto
            -5.0200042724609375 -251.99000549316406 145 -247 148 -127 rrcurveto
            hintmask 11100100
            -305 -217.99000549316406 619 179 hlineto
            hintmask 11010100
            -119.99000549316406 71.99000549316406 -153 233 333 vvcurveto
            362 189 145 214 199.99000549316406 185.02000427246094 -147 -360 -333 -124 -233 -120.02000427246094 -71.99000549316406 vhcurveto
            hintmask 11011000
            -179 606 51 callsubr
            vlineto
            hintmask 11010100
            -313 hlineto
            endchar
          </CharString>
          <CharString index="27">
            224 -97 callgsubr
            243.97999572753906 465.99000549316406 201 403 58 callsubr
            707.9900054931641 1537.990005493164 rmoveto
            185 callsubr
            -627 132 callsubr
            -201 99 callsubr
            -693.9900054931641 154 hlineto
            92 -56 callsubr
            -14.990005493164062 -1 142 hvcurveto
            468.99000549316406 -4.0200042724609375 301.02000427246094 301.99000549316406 519 vvcurveto
            466 -236 270.99000549316406 -510 vhcurveto
            5 -1310 rmoveto
            -64 callgsubr
            -78.00999450683594 4.0200042724609375 13.990005493164062 -53 hvcurveto
            448 337 201 -337 389 57 callgsubr
          </CharString>
          <CharString index="28">
            -140 -97 callgsubr
            231.97999572753906 278.99000549316406 173.00999450683594 266.00001525878906 222 return
          </CharString>
          <CharString index="29">
            84.99000549316406 -62 callgsubr
            return
          </CharString>
          <CharString index="30">
            -1521.990005493164 return
          </CharString>
          <CharString index="31">
            -101.99000549316406 return
          </CharString>
          <CharString index="32">
            rmoveto
            40 -83.99000549316406 rlineto
            1102.009994506836 -73 callsubr
            -706.0099945068359 hlineto
            73.02000427246094 93 671.9900054931641 1106 -37.99000549316406 81 rlineto
            -1067 -231 668 hlineto
            -58 -81 -686 -1126.009994506836 rlineto
            endchar
          </CharString>
          <CharString index="33">
            93 callsubr
            -86 callsubr
            return
          </CharString>
          <CharString index="34">
            241.99000549316406 return
          </CharString>
          <CharString index="35">
            1849 rmoveto
            -217 130.99000549316406 -18 -51 -249 -62 callsubr
            return
          </CharString>
          <CharString index="36">
            173.99000549316406 -92 callsubr
            return
          </CharString>
          <CharString index="37">
            2.9900054931640625 return
          </CharString>
          <CharString index="38">
            -1.9900054931640625 return
          </CharString>
          <CharString index="39">
            -4 -97 callgsubr
            238.97999572753906 -59 callgsubr
            return
          </CharString>
          <CharString index="40">
            -96 679.9900054931641 -19 callsubr
            607.9999847412109 204 hstem
            699.9799957275391 293 vstem
            598 901 rmoveto
            238 150 157 168 205 vvcurveto
            127 -103 171.99000549316406 -288.00999450683594 -208 -177 -110 -95.99000549316406 -60.99000549316406 vhcurveto
            -56 callsubr
            -149 rlineto
            98.02000427246094 -64 callsubr
            82 52.99000549316406 111 hhcurveto
            -82 callgsubr
            63 -45 182 callsubr
            -191 -364 -263 -150 -78 hvcurveto
            116 callsubr
            8 callsubr
            rlineto
            817.0099945068359 98 callgsubr
            hlineto
            -448 101 callgsubr
            rlineto
            endchar
          </CharString>
          <CharString index="41">
            84.00999450683594 return
          </CharString>
          <CharString index="42">
            78.99000549316406 return
          </CharString>
          <CharString index="43">
            78.00999450683594 return
          </CharString>
          <CharString index="44">
            1867.979995727539 rmoveto
            268 -291.97999572753906 rlineto
            219 hlineto
            11 callgsubr
            rlineto
            return
          </CharString>
          <CharString index="45">
            -235 49 callsubr
            -86 callsubr
            return
          </CharString>
          <CharString index="46">
            95.99000549316406 return
          </CharString>
          <CharString index="47">
            1648.990005493164 rmoveto
            162 3 callgsubr
            222 198.99000549316406 60 callsubr
            165 92 9 callgsubr
            return
          </CharString>
          <CharString index="48">
            -110 1 -65 callsubr
            63 callgsubr
            96 callsubr
            97.97999572753906 -24 callgsubr
            209 callgsubr
            -68 -66 callsubr
            -116 hhcurveto
            -112 -93 221 callgsubr
            1 hvcurveto
            return
          </CharString>
          <CharString index="49">
            328.99000549316406 return
          </CharString>
          <CharString index="50">
            -217 -17 callgsubr
            49 callsubr
            return
          </CharString>
          <CharString index="51">
            107.99000549316406 return
          </CharString>
          <CharString index="52">
            43.99000549316406 return
          </CharString>
          <CharString index="53">
            -17 callsubr
            -111 -39 callgsubr
            return
          </CharString>
          <CharString index="54">
            -123 -97 callgsubr
            248.97999572753906 1066.990005493164 237.99000549316406 hstem
            138.99000549316406 -92 callsubr
            361.00999450683594 320 vstem
            return
          </CharString>
          <CharString index="55">
            hstem
            -39 callsubr
            vstem
            return
          </CharString>
          <CharString index="56">
            78 callsubr
            81 callgsubr
            83 -20 callgsubr
            vhcurveto
            return
          </CharString>
          <CharString index="57">
            156 165 423.97999572753906 hvcurveto
            1058.020004272461 -312 130 callsubr
            return
          </CharString>
          <CharString index="58">
            -66.99000549316406 return
          </CharString>
          <CharString index="59">
            49 callgsubr
            229.99000549316406 713.9799957275391 228 hstem
            99 callsubr
            298 235.989990234375 307.02000427246094 vstem
            return
          </CharString>
          <CharString index="60">
            89.99000549316406 return
          </CharString>
          <CharString index="61">
            -112.99000549316406 return
          </CharString>
          <CharString index="62">
            -84.99000549316406 -69 callgsubr
            return
          </CharString>
          <CharString index="63">
            311.99000549316406 -37 callgsubr
            return
          </CharString>
          <CharString index="64">
            rmoveto
            -538.9900054931641 -1530 rlineto
            240 hlineto
            542 1530 rlineto
            -243.02000427246094 hlineto
            1050.009994506836 -1143 rmoveto
            -164 259.99000549316406 -229.99000549316406 hlineto
            -25 -259.99000549316406 rlineto
            -285 hlineto
            439.99000549316406 699 -187 92 rlineto
            -68 hlineto
            -497.99000549316406 -889 52 -94 rlineto
            546 hlineto
            -1 -271.99000549316406 rlineto
            256 271.99000549316406 164 192 hlineto
            endchar
          </CharString>
          <CharString index="65">
            112.99000549316406 return
          </CharString>
          <CharString index="66">
            -201 vlineto
            -9.990005493164062 25 111 191 callsubr
            258.99000549316406 156.02000427246094 165 423.97999572753906 hvcurveto
            1058.020004272461 -312.00999450683594 114 callgsubr
            return
          </CharString>
          <CharString index="67">
            168 callsubr
            318.00999450683594 389.9700012207031 290.02000427246094 vstem
            return
          </CharString>
          <CharString index="68">
            98 -58 callsubr
            741 -58 callsubr
            return
          </CharString>
          <CharString index="69">
            236.99000549316406 return
          </CharString>
          <CharString index="70">
            -79 callgsubr
            hstem
            124 callgsubr
            639.0200042724609 301.99000549316406 vstem
            return
          </CharString>
          <CharString index="71">
            vhcurveto
            222 vlineto
            8.009994506835938 -25 -91 13.990005493164062 -86 hhcurveto
            return
          </CharString>
          <CharString index="72">
            -8.009994506835938 return
          </CharString>
          <CharString index="73">
            -149 857.9799957275391 192 hstem
            686.4799957275391 255.50999450683594 vstem
            1105.979995727539 1049.990005493164 rmoveto
            -163.99000549316406 260 -230 hlineto
            -25 -260 rlineto
            -285 hlineto
            440.00999450683594 699 -187 92 rlineto
            -68 hlineto
            -498.00999450683594 -889 52 -94 rlineto
            546 hlineto
            62 callgsubr
            -272 rlineto
            256 272 163.99000549316406 192 hlineto
            endchar
          </CharString>
          <CharString index="74">
            91.02000427246094 return
          </CharString>
          <CharString index="75">
            rmoveto
            76.97999572753906 -168 171 6 289 188 callsubr
            28 145 -8.990005493164062 177.99000549316406 199 vvcurveto
            909 -320 -914 vlineto
            -206.99000549316406 -4.0200042724609375 78 callgsubr
            -37.99000549316406 -161.97000122070312 -115.02000427246094 -80.02000427246094 -103.97000122070312 -39 rrcurveto
            endchar
          </CharString>
          <CharString index="76">
            105 578.9900054931641 98 callsubr
            503.00999450683594 -38 callsubr
            hstem
            -78 callgsubr
            return
          </CharString>
          <CharString index="77">
            19 callsubr
            -245.99000549316406 return
          </CharString>
          <CharString index="78">
            79.00999450683594 return
          </CharString>
          <CharString index="79">
            83.99000549316406 return
          </CharString>
          <CharString index="80">
            69 61 99 24 57 1 rrcurveto
            129 4 43 -65 -186 vvcurveto
            -647.9900054931641 312 709.9799957275391 vlineto
            332 -126 125.00999450683594 -252 94 callgsubr
            endchar
          </CharString>
          <CharString index="81">
            49 callgsubr
            250.97999572753906 666.0000152587891 102 callgsubr
            168 callsubr
            310 vstem
            return
          </CharString>
          <CharString index="82">
            -125.00999450683594 return
          </CharString>
          <CharString index="83">
            94.99000549316406 return
          </CharString>
          <CharString index="84">
            -82 callgsubr
            59 -76 callsubr
            -155 hvcurveto
            584 -614.0099945068359 rmoveto
            -244 75 callgsubr
            -200.99000549316406 162 callsubr
            100 callsubr
            vhcurveto
            223.99000549316406 2 205 160 290 vvcurveto
            248 -120 200 -275 -3 vhcurveto
            -223.99000549316406 -69 callsubr
            -205 -161.02000427246094 -290 vvcurveto
            return
          </CharString>
          <CharString index="85">
            521 240 callsubr
            -210.97999572753906 231.97999572753906 278.99000549316406 173.00999450683594 -138.00999450683594 176 218.010009765625 237.99000549316406 -227.99000549316406 222 hstemhm
            -82 callgsubr
            320 328.989990234375 323.00999450683594 390.00001525878906 289.99000549316406 hintmask 0110011110000000
            return
          </CharString>
          <CharString index="86">
            rmoveto
            -1277.990005493164 320 97 callsubr
            434.00999450683594 244 -1190.009994506836 -244 436 vlineto
            return
          </CharString>
          <CharString index="87">
            26 callgsubr
            -1521.990005493164 return
          </CharString>
          <CharString index="88">
            230.99000549316406 return
          </CharString>
          <CharString index="89">
            -97 callgsubr
            -38 callsubr
            return
          </CharString>
          <CharString index="90">
            67.00999450683594 return
          </CharString>
          <CharString index="91">
            245.99000549316406 return
          </CharString>
          <CharString index="92">
            66.00999450683594 return
          </CharString>
          <CharString index="93">
            484 -820 rmoveto
            4 callgsubr
            -10 callsubr
            2 5.9799957275390625 -48.99000549316406 hvcurveto
            583 vlineto
            47.99000549316406 10.020004272460938 62.02000427246094 1.9900054931640625 53 2 rrcurveto
            197.97999572753906 7.9900054931640625 106 -104.97999572753906 -193 vvcurveto
            -251 -146 -64 -155 vhcurveto
            endchar
          </CharString>
          <CharString index="94">
            510.9700012207031 -987 rlineto
            -535 319 532.9900054931641 vlineto
            return
          </CharString>
          <CharString index="95">
            923.9900054931641 216 165.989990234375 89 callgsubr
            -201.00999450683594 219.99000549316406 hstemhm
            return
          </CharString>
          <CharString index="96">
            294.99000549316406 -193.00001525878906 307.99000549316406 return
          </CharString>
          <CharString index="97">
            -67.00999450683594 return
          </CharString>
          <CharString index="98">
            72.00999450683594 return
          </CharString>
          <CharString index="99">
            -31 -97 callgsubr
            -16 callsubr
            1055.979995727539 252 104 callsubr
            vstem
            return
          </CharString>
          <CharString index="100">
            -144 -187 -10 -55.99000549316406 -126 hvcurveto
            -123 -55 -76 -92 -138.02000427246094 vvcurveto
            -215 148 -155.97000122070312 223.99000549316406 135 100.99000549316406 55.99000549316406 55.99000549316406 61 vhcurveto
            -8 vlineto
            -98.97999572753906 41 -5 76 vhcurveto
            182 760.9700012207031 hlineto
            return
          </CharString>
          <CharString index="101">
            177 callgsubr
            110.97999572753906 191 callsubr
            259.00999450683594 -50 callsubr
            -120.02000427246094 -33.970001220703125 -65 13 9 -18 vhcurveto
            endchar
          </CharString>
          <CharString index="102">
            40 callgsubr
            -126.00999450683594 -25 callgsubr
            -46 callsubr
            -106 rlinecurve
            return
          </CharString>
          <CharString index="103">
            242 callgsubr
            651.9999847412109 34 callgsubr
            return
          </CharString>
          <CharString index="104">
            167.99000549316406 -92 callsubr
            return
          </CharString>
          <CharString index="105">
            -1609.009994506836 rmoveto
            -110 1 77.99000549316406 63 callgsubr
            41 callgsubr
            hhcurveto
            115 callsubr
            -14 callgsubr
            97.97999572753906 -24 callgsubr
            -1 hvcurveto
            -56 callsubr
            -1 -68 -66 callsubr
            -117 hhcurveto
            -111 -94 221 callgsubr
            2 hvcurveto
            return
          </CharString>
          <CharString index="106">
            866 -73 callsubr
            -547.9900054931641 return
          </CharString>
          <CharString index="107">
            215.97999572753906 707.010009765625 217 return
          </CharString>
          <CharString index="108">
            -852.0099945068359 return
          </CharString>
          <CharString index="109">
            -26.990005493164062 return
          </CharString>
          <CharString index="110">
            348.99000549316406 return
          </CharString>
          <CharString index="111">
            -153 hhcurveto
            -157 75 callsubr
            124 45 126 callgsubr
            return
          </CharString>
          <CharString index="112">
            -65 callsubr
            -52 callgsubr
            return
          </CharString>
          <CharString index="113">
            -29 -70 callsubr
            11.020004272460938 -17 hvcurveto
            return
          </CharString>
          <CharString index="114">
            hstem
            200.99000549316406 320 return
          </CharString>
          <CharString index="115">
            -153.99000549316406 return
          </CharString>
          <CharString index="116">
            rrcurveto
            -103 -3.9900054931640625 -52 -47 -65 hhcurveto
            -31 6 callsubr
            101 callgsubr
            -165 rlineto
            -16 24.990005493164062 97.00999450683594 215 callsubr
            115 71.99000549316406 171 6 hvcurveto
            -70 callsubr
            return
          </CharString>
          <CharString index="117">
            7 callgsubr
            -27.020004272460938 139 callgsubr
            -65 callsubr
            -19 callgsubr
            return
          </CharString>
          <CharString index="118">
            rmoveto
            -163 -1 150 callgsubr
            33 callsubr
            -70 -54 -57.02000427246094 100.99000549316406 -97 42 -140 -5 -140 -4 8 callsubr
            -80 -77 -58 -6 122 rcurveline
            -283 241 callgsubr
            hlineto
            return
          </CharString>
          <CharString index="119">
            -97 callgsubr
            242.97000122070312 707.010009765625 222 return
          </CharString>
          <CharString index="120">
            -35 callgsubr
            vhcurveto
            return
          </CharString>
          <CharString index="121">
            1632.990005493164 rmoveto
            225 callgsubr
            146 callsubr
            -25 callgsubr
            -46 callsubr
            -106 rlinecurve
            149 193 callgsubr
            267.02000427246094 210 58.99000549316406 137 rlinecurve
            return
          </CharString>
          <CharString index="122">
            1867.979995727539 rmoveto
            268 53 callgsubr
            return
          </CharString>
          <CharString index="123">
            22 896 262.97999572753906 53 callsubr
            return
          </CharString>
          <CharString index="124">
            610 244 -928.0099945068359 return
          </CharString>
          <CharString index="125">
            hhcurveto
            -153 232 callgsubr
            -29 callgsubr
            hvcurveto
            return
          </CharString>
          <CharString index="126">
            -47 callsubr
            -233 return
          </CharString>
          <CharString index="127">
            99 54 callgsubr
            211 callgsubr
            45 hvcurveto
            50 callsubr
            -56 callsubr
            rlineto
            -51 -37 -51 -60 return
          </CharString>
          <CharString index="128">
            -33 callsubr
            -223 126 callsubr
            return
          </CharString>
          <CharString index="129">
            -88 2 callgsubr
            236 callsubr
            35 vhcurveto
            -169 -123.99000549316406 rlineto
            -71 vlineto
            39.02000427246094 -21.009994506835938 49.99000549316406 -88.97999572753906 -112 vvcurveto
            -92 -77 callgsubr
            return
          </CharString>
          <CharString index="130">
            -28 rlineto
            52 60 68 60 callgsubr
            194 callsubr
            32 -33 27 125 callgsubr
            -9.990005493164062 41 callsubr
            -13 -61 return
          </CharString>
          <CharString index="131">
            59 callsubr
            hstem
            147 callgsubr
            969.0099945068359 vstem
            return
          </CharString>
          <CharString index="132">
            1477.979995727539 rmoveto
            -9 callgsubr
            return
          </CharString>
          <CharString index="133">
            38 callgsubr
            267.02000427246094 292.97999572753906 -154 21 callsubr
            -157 74 callsubr
            rlineto
            return
          </CharString>
          <CharString index="134">
            -143.02000427246094 248.02000427246094 hhcurveto
            180 callgsubr
            139 callsubr
            150 callgsubr
            hhcurveto
            -156.02000427246094 return
          </CharString>
          <CharString index="135">
            1117 -97 callgsubr
            242.97000122070312 -226.97999572753906 0 callsubr
            -206 222 hstemhm
            -24 callsubr
            327 437 -92 callsubr
            return
          </CharString>
          <CharString index="136">
            40 callsubr
            285.97999572753906 94 callsubr
            162 callgsubr
            372 -160.99000549316406 20 callgsubr
            return
          </CharString>
          <CharString index="137">
            283 372.02000427246094 -161 19 callsubr
            -246 return
          </CharString>
          <CharString index="138">
            28 51 callgsubr
            -115 30 -143 hhcurveto
            return
          </CharString>
          <CharString index="139">
            33 callgsubr
            8 callsubr
            21 callsubr
            return
          </CharString>
          <CharString index="140">
            -82.99000549316406 return
          </CharString>
          <CharString index="141">
            31.990005493164062 return
          </CharString>
          <CharString index="142">
            66 callgsubr
            108 -82 callgsubr
            162 vvcurveto
            return
          </CharString>
          <CharString index="143">
            -404 871.9900054931641 286.97999572753906 hstem
            212 callsubr
            145 callgsubr
            return
          </CharString>
          <CharString index="144">
            -97 callgsubr
            234.99000549316406 704.9900054931641 216 return
          </CharString>
          <CharString index="145">
            80 1 callgsubr
            return
          </CharString>
          <CharString index="146">
            -77 callsubr
            318.00999450683594 return
          </CharString>
          <CharString index="147">
            -88.99000549316406 return
          </CharString>
          <CharString index="148">
            -124.99000549316406 return
          </CharString>
          <CharString index="149">
            1649.990005493164 rmoveto
            162 -90.00999450683594 222 199 110 callsubr
            9 callgsubr
            return
          </CharString>
          <CharString index="150">
            609 0 250.97999572753906 125.010009765625 222 65 98 callgsubr
            374.00999450683594 169 callgsubr
            859.9900054931641 317.99000549316406 vstem
            return
          </CharString>
          <CharString index="151">
            -214.02000427246094 656 416.00999450683594 rlineto
            243 vlineto
            -656 422.00999450683594 return
          </CharString>
          <CharString index="152">
            -49 callgsubr
            -18 -20 vhcurveto
            return
          </CharString>
          <CharString index="153">
            372 rlineto
            -222.99000549316406 hlineto
            -286 return
          </CharString>
          <CharString index="154">
            -9 callsubr
            -111 -104 return
          </CharString>
          <CharString index="155">
            69 -199.99000549316406 rlineto
            return
          </CharString>
          <CharString index="156">
            -28 -77 callgsubr
            rlinecurve
            return
          </CharString>
          <CharString index="157">
            -125.99000549316406 return
          </CharString>
          <CharString index="158">
            217.99000549316406 return
          </CharString>
          <CharString index="159">
            -507 65 callsubr
            1611 80 callsubr
            return
          </CharString>
          <CharString index="160">
            -56 callgsubr
            392.00999450683594 61 callsubr
            return
          </CharString>
          <CharString index="161">
            -2.9900054931640625 return
          </CharString>
          <CharString index="162">
            -98.02000427246094 return
          </CharString>
          <CharString index="163">
            -31 callsubr
            471.97999572753906 309 vstem
            return
          </CharString>
          <CharString index="164">
            229 callgsubr
            651 593 -651 314 -73 callgsubr
            -314 -632 -593 632 115 callgsubr
            vlineto
            endchar
          </CharString>
          <CharString index="165">
            240 hstem
            -46 callgsubr
            vstem
            return
          </CharString>
          <CharString index="166">
            -222 0 0 callsubr
            return
          </CharString>
          <CharString index="167">
            221 -198.99000549316406 return
          </CharString>
          <CharString index="168">
            -92 callsubr
            vstem
            return
          </CharString>
          <CharString index="169">
            124.99000549316406 return
          </CharString>
          <CharString index="170">
            123 callgsubr
            -154 -33 callsubr
            -222.99000549316406 -181 return
          </CharString>
          <CharString index="171">
            -137 103 callsubr
            -126 -25 callgsubr
            return
          </CharString>
          <CharString index="172">
            202.99000549316406 return
          </CharString>
          <CharString index="173">
            24 -133 161 hhcurveto
            154 99 54 callgsubr
            return
          </CharString>
          <CharString index="174">
            -142 -507 252 hstem
            17 1144.990005493164 vstem
            return
          </CharString>
          <CharString index="175">
            1 callsubr
            vlineto
            return
          </CharString>
          <CharString index="176">
            -59 105 151 153 59 94 106 -82 callgsubr
            58 -103 -154 vhcurveto
            return
          </CharString>
          <CharString index="177">
            -133 161.02000427246094 91 callsubr
            return
          </CharString>
          <CharString index="178">
            -30 callsubr
            -242 -16 callsubr
            return
          </CharString>
          <CharString index="179">
            -92 callsubr
            hintmask 00000000
            return
          </CharString>
          <CharString index="180">
            -86 -79 -69 callgsubr
            return
          </CharString>
          <CharString index="181">
            -92.02000427246094 return
          </CharString>
          <CharString index="182">
            -7.9900054931640625 return
          </CharString>
          <CharString index="183">
            394 215 204 348 376.00999450683594 -208 149 -348 hvcurveto
            -145.02000427246094 -135.99000549316406 -16 -168 hhcurveto
            return
          </CharString>
          <CharString index="184">
            30 643.9900054931641 245 hstem
            102 callgsubr
            850 vstem
            255 889 rmoveto
            -245 850 245 -850 vlineto
            endchar
          </CharString>
          <CharString index="185">
            1776.990005493164 rmoveto
            -100 70 -64 return
          </CharString>
          <CharString index="186" raw="1">
            ff0328fa e107d0c8 0b 
          </CharString>
          <CharString index="187">
            89 callsubr
            hstemhm
            return
          </CharString>
          <CharString index="188">
            80.02000427246094 return
          </CharString>
          <CharString index="189">
            271 650.9900054931641 239 hstem
            -78 callgsubr
            592.9900054931641 313.99000549316406 vstem
            return
          </CharString>
          <CharString index="190">
            vstem
            -20 callsubr
            return
          </CharString>
          <CharString index="191">
            460.97999572753906 318.99000549316406 return
          </CharString>
          <CharString index="192">
            -99 88 callgsubr
            -65 return
          </CharString>
          <CharString index="193">
            8.990005493164062 return
          </CharString>
          <CharString index="194">
            -94.99000549316406 return
          </CharString>
          <CharString index="195">
            -104.02000427246094 return
          </CharString>
          <CharString index="196">
            357.99000549316406 return
          </CharString>
          <CharString index="197">
            135.99000549316406 return
          </CharString>
          <CharString index="198">
            hhcurveto
            99 callgsubr
            99 54 callgsubr
            return
          </CharString>
          <CharString index="199">
            hstem
            4.9900054931640625 1962.979995727539 vstem
            return
          </CharString>
          <CharString index="200">
            1667.990005493164 rmoveto
            return
          </CharString>
          <CharString index="201">
            -373 rlineto
            223 hlineto
            return
          </CharString>
          <CharString index="202">
            111 callsubr
            100.99000549316406 return
          </CharString>
          <CharString index="203">
            41 callgsubr
            hhcurveto
            -42 callsubr
            -33 callsubr
            return
          </CharString>
          <CharString index="204">
            1277.990005493164 return
          </CharString>
          <CharString index="205">
            218.99000549316406 return
          </CharString>
          <CharString index="206">
            118.99000549316406 return
          </CharString>
          <CharString index="207">
            0.9900054931640625 return
          </CharString>
          <CharString index="208">
            35 267 210 return
          </CharString>
          <CharString index="209">
            -153 -59 -93 -105.97999572753906 -102.02000427246094 -58 106 150 153 58 93.99000549316406 106 vhcurveto
            return
          </CharString>
          <CharString index="210">
            81 callsubr
            1 callgsubr
            -214.02000427246094 40 callgsubr
            return
          </CharString>
          <CharString index="211">
            hstem
            90 callgsubr
            328 return
          </CharString>
          <CharString index="212">
            1891.979995727539 rmoveto
            87 callgsubr
            148 callsubr
            -47 callgsubr
            -590.9900054931641 vlineto
            return
          </CharString>
          <CharString index="213">
            113 callgsubr
            -100 70 -64 -34 callgsubr
            105.99000549316406 83 -64 callsubr
            103 98 return
          </CharString>
          <CharString index="214">
            -378 -211 190.99000549316406 701.989990234375 190.99000549316406 689.0099945068359 195 hstem
            return
          </CharString>
          <CharString index="215">
            -137.02000427246094 38 callsubr
            return
          </CharString>
          <CharString index="216">
            189 callgsubr
            -34 -65 13 9 -18 vhcurveto
            return
          </CharString>
          <CharString index="217">
            221 -199 165 92.02000427246094 return
          </CharString>
          <CharString index="218">
            55 callsubr
            65 -69.97999572753906 return
          </CharString>
          <CharString index="219">
            -156 40 callsubr
            return
          </CharString>
          <CharString index="220">
            vlineto
            -70 callsubr
            return
          </CharString>
          <CharString index="221">
            -42.99000549316406 return
          </CharString>
          <CharString index="222">
            113.99000549316406 return
          </CharString>
          <CharString index="223">
            42.99000549316406 return
          </CharString>
          <CharString index="224">
            230 callsubr
            hintmask 01100000
            228 callsubr
            150 callgsubr
            return
          </CharString>
          <CharString index="225">
            107 123 callsubr
            return
          </CharString>
          <CharString index="226">
            -68.02000427246094 return
          </CharString>
          <CharString index="227">
            404.99000549316406 return
          </CharString>
          <CharString index="228">
            -222.99000549316406 -2 -205 -161 -289.00999450683594 vvcurveto
            574 62 callgsubr
            rmoveto
            return
          </CharString>
          <CharString index="229">
            128 callsubr
            285.97999572753906 94 callsubr
            return
          </CharString>
          <CharString index="230">
            141 callsubr
            -55.99000549316406 -17 callsubr
            -111 return
          </CharString>
          <CharString index="231">
            210.97999572753906 -68 callgsubr
            return
          </CharString>
          <CharString index="232">
            179.99000549316406 -92 callsubr
            return
          </CharString>
          <CharString index="233">
            -181 -220 181 return
          </CharString>
          <CharString index="234">
            80 callgsubr
            66 -111 -104 -86 100 callgsubr
            -76 callsubr
            return
          </CharString>
          <CharString index="235">
            194 callgsubr
            112 callsubr
            return
          </CharString>
          <CharString index="236">
            -51 -23 callgsubr
            rlineto
            -32.99000549316406 -60 return
          </CharString>
          <CharString index="237">
            114 callgsubr
            73 callgsubr
            return
          </CharString>
          <CharString index="238">
            hstemhm
            -82 callgsubr
            322 return
          </CharString>
          <CharString index="239">
            -118.99000549316406 return
          </CharString>
          <CharString index="240">
            -25.009994506835938 return
          </CharString>
          <CharString index="241">
            108.00999450683594 return
          </CharString>
          <CharString index="242">
            -137.02000427246094 return
          </CharString>
          <CharString index="243">
            148.99000549316406 return
          </CharString>
          <CharString index="244">
            -100 -98 65 -70 101.00999450683594 hvcurveto
            484.99000549316406 hmoveto
            104 -29 callsubr
            return
          </CharString>
          <CharString index="245">
            -185 633.9900054931641 135 callgsubr
            399.02000427246094 -7 callgsubr
            return
          </CharString>
          <CharString index="246">
            190 callgsubr
            -35 callsubr
            hvcurveto
            -187 hlineto
            -48 -4 -19 -95 return
          </CharString>
          <CharString index="247">
            hstem
            304.97999572753906 102 callgsubr
            vstem
            304.97999572753906 1780 rmoveto
            return
          </CharString>
          <CharString index="248">
            -65 callsubr
            -64 callsubr
            104 97 return
          </CharString>
          <CharString index="249">
            147 175.99000549316406 211 return
          </CharString>
          <CharString index="250">
            rmoveto
            -110 1 -65 callsubr
            return
          </CharString>
          <CharString index="251">
            vlineto
            -35 callsubr
            return
          </CharString>
          <CharString index="252">
            -76 callsubr
            -83 return
          </CharString>
          <CharString index="253">
            -126.02000427246094 return
          </CharString>
          <CharString index="254">
            106.99000549316406 return
          </CharString>
          <CharString index="255">
            590.9900054931641 return
          </CharString>
          <CharString index="256">
            182.99000549316406 return
          </CharString>
          <CharString index="257">
            -130.99000549316406 return
          </CharString>
          <CharString index="258">
            -54 callsubr
            -99 return
          </CharString>
          <CharString index="259">
            146 hstem
            41.97999572753906 184 316 183 vstem
            41.97999572753906 return
          </CharString>
          <CharString index="260">
            1 vhcurveto
            -92 -65 57 -28 callsubr
            103.00999450683594 74 33 83 -1 hvcurveto
            return
          </CharString>
          <CharString index="261">
            142 callgsubr
            232 callgsubr
            return
          </CharString>
          <CharString index="262">
            142.99000549316406 vstem
            1046 1839.979995727539 rmoveto
            -486.02000427246094 return
          </CharString>
          <CharString index="263">
            hstemhm
            161.99000549316406 -92 callsubr
            return
          </CharString>
          <CharString index="264">
            21 894.9900054931641 263.97999572753906 return
          </CharString>
          <CharString index="265">
            hstemhm
            -71 callsubr
            return
          </CharString>
          <CharString index="266">
            379 -340.010009765625 return
          </CharString>
          <CharString index="267">
            -20.990005493164062 return
          </CharString>
          <CharString index="268">
            26.009994506835938 return
          </CharString>
          <CharString index="269">
            265.00999450683594 return
          </CharString>
          <CharString index="270">
            -1661.990005493164 return
          </CharString>
          <CharString index="271">
            92 -14 219.99000549316406 464.989990234375 213 420 233 return
          </CharString>
          <CharString index="272">
            157 callgsubr
            93.97999572753906 264 return
          </CharString>
          <CharString index="273">
            334.00999450683594 -135 111 -236.02000427246094 -2 vhcurveto
            endchar
          </CharString>
          <CharString index="274">
            62 callsubr
            -98 rlineto
            46 return
          </CharString>
          <CharString index="275">
            hstem
            -24 callsubr
            return
          </CharString>
          <CharString index="276">
            rmoveto
            163 callsubr
            return
          </CharString>
          <CharString index="277">
            -69 callsubr
            hvcurveto
            return
          </CharString>
          <CharString index="278">
            vlineto
            2 callsubr
            return
          </CharString>
          <CharString index="279">
            1250.979995727539 rmoveto
            return
          </CharString>
          <CharString index="280">
            -211 -35 callsubr
            136 -176 180 callgsubr
            hhcurveto
            return
          </CharString>
          <CharString index="281">
            177 callgsubr
            111 116 callgsubr
            return
          </CharString>
          <CharString index="282">
            -531 -190.99000549316406 170 1570.9700012207031 187 hstem
            return
          </CharString>
          <CharString index="283">
            -16 callgsubr
            -66 callsubr
            return
          </CharString>
          <CharString index="284">
            -93 93 54 181 206 64 103 rlinecurve
            return
          </CharString>
          <CharString index="285">
            -67.99000549316406 return
          </CharString>
          <CharString index="286">
            216.99000549316406 return
          </CharString>
          <CharString index="287">
            -175.99000549316406 return
          </CharString>
          <CharString index="288">
            68.02000427246094 return
          </CharString>
          <CharString index="289">
            -107.99000549316406 return
          </CharString>
          <CharString index="290">
            14.990005493164062 return
          </CharString>
          <CharString index="291">
            -9 callgsubr
            47 callgsubr
            return
          </CharString>
          <CharString index="292">
            -166 -113.99000549316406 -16 -89.00999450683594 hhcurveto
            -151 return
          </CharString>
          <CharString index="293">
            -204 126 callgsubr
            500 75 callsubr
            rmoveto
            return
          </CharString>
          <CharString index="294">
            87 callgsubr
            149 callgsubr
            -47 callgsubr
            return
          </CharString>
          <CharString index="295">
            104 callgsubr
            rlinecurve
            return
          </CharString>
          <CharString index="296">
            92 -275.99000549316406 308 rlineto
            return
          </CharString>
          <CharString index="297">
            143.02000427246094 203 return
          </CharString>
          <CharString index="298">
            116 callgsubr
            39 hhcurveto
            return
          </CharString>
          <CharString index="299">
            163 callgsubr
            345 return
          </CharString>
          <CharString index="300">
            1613.990005493164 rmoveto
            return
          </CharString>
          <CharString index="301">
            -215 -70 -12 -64 rlineto
            return
          </CharString>
          <CharString index="302">
            222.99000549316406 return
          </CharString>
          <CharString index="303">
            196.99000549316406 return
          </CharString>
          <CharString index="304">
            15.009994506835938 return
          </CharString>
          <CharString index="305">
            352.99000549316406 return
          </CharString>
          <CharString index="306">
            264.99000549316406 return
          </CharString>
          <CharString index="307">
            36.99000549316406 return
          </CharString>
          <CharString index="308">
            233.97999572753906 return
          </CharString>
          <CharString index="309">
            1711.979995727539 return
          </CharString>
          <CharString index="310">
            -203 -35 callsubr
            124 -143 248 hhcurveto
            return
          </CharString>
          <CharString index="311">
            hvcurveto
            183.99000549316406 1 -129 100 -208 hhcurveto
            return
          </CharString>
          <CharString index="312">
            28 -13 34 -49 callgsubr
            return
          </CharString>
          <CharString index="313">
            192 callgsubr
            37 return
          </CharString>
          <CharString index="314">
            rlineto
            46 200 callsubr
            59 return
          </CharString>
          <CharString index="315">
            111 -44.02000427246094 rlineto
            return
          </CharString>
          <CharString index="316">
            -103.02000427246094 return
          </CharString>
          <CharString index="317">
            225.02000427246094 return
          </CharString>
          <CharString index="318">
            228.99000549316406 return
          </CharString>
          <CharString index="319">
            157.97999572753906 return
          </CharString>
          <CharString index="320">
            88.99000549316406 return
          </CharString>
          <CharString index="321">
            1613.979995727539 return
          </CharString>
          <CharString index="322">
            -12 58 hhcurveto
            134 return
          </CharString>
          <CharString index="323">
            -110.97999572753906 return
          </CharString>
          <CharString index="324">
            47 callgsubr
            hvcurveto
            return
          </CharString>
          <CharString index="325">
            -86 100 callgsubr
            -76 callsubr
            vhcurveto
            return
          </CharString>
          <CharString index="326">
            1387.990005493164 rmoveto
            return
          </CharString>
          <CharString index="327">
            -169.99000549316406 rlineto
            return
          </CharString>
          <CharString index="328">
            -47 callgsubr
            hstemhm
            return
          </CharString>
          <CharString index="329">
            rmoveto
            hintmask 11110000
            208 callsubr
            return
          </CharString>
          <CharString index="330">
            vstem
            135 callgsubr
            889 rmoveto
            -245 return
          </CharString>
          <CharString index="331">
            hstem
            242 callgsubr
            return
          </CharString>
          <CharString index="332">
            -8 -39 hhcurveto
            -10 callsubr
            -51 23 65 return
          </CharString>
          <CharString index="333">
            -1462 318.02000427246094 1462 return
          </CharString>
          <CharString index="334">
            215.97999572753906 -529.0200042724609 hlineto
            return
          </CharString>
          <CharString index="335">
            209 callsubr
            -29 130 -162 hhcurveto
            return
          </CharString>
          <CharString index="336">
            hstemhm
            124 callsubr
            return
          </CharString>
          <CharString index="337">
            -60 -49 callsubr
            hhcurveto
            return
          </CharString>
          <CharString index="338">
            238 callsubr
            159 return
          </CharString>
          <CharString index="339">
            -81 callgsubr
            321 return
          </CharString>
          <CharString index="340">
            389.97999572753906 return
          </CharString>
          <CharString index="341">
            -100.99000549316406 return
          </CharString>
          <CharString index="342">
            -132.02000427246094 return
          </CharString>
          <CharString index="343">
            -97.02000427246094 return
          </CharString>
          <CharString index="344">
            -372.97999572753906 return
          </CharString>
          <CharString index="345">
            139.02000427246094 return
          </CharString>
          <CharString index="346">
            169.99000549316406 return
          </CharString>
          <CharString index="347">
            -97 callgsubr
            210.97999572753906 return
          </CharString>
          <CharString index="348">
            163 callsubr
            -92 callsubr
            return
          </CharString>
          <CharString index="349">
            1666.990005493164 rmoveto
            162 -115 return
          </CharString>
          <CharString index="350">
            112 callgsubr
            vstem
            return
          </CharString>
          <CharString index="351">
            -214 174 return
          </CharString>
        <CharString name=".notdef">
          552 0 98 callsubr
          973.989990234375 223 hstem
          232.97999572753906 229 960 227 vstem
          232.97999572753906 1415.990005493164 rmoveto
          -1415.990005493164 1416 1415.990005493164 -1416 vlineto
          705 -828.9900054931641 rmoveto
          -346.99000549316406 -368 -128 144 89 callsubr
          342 -359 363.00999450683594 123 62 callsubr
          357 -367.99000549316406 351.99000549316406 366 128 -124 -363.00999450683594 -357.99000549316406 363.00999450683594 -368 -122 -122 -362 368 rlineto
          endchar
        </CharString>
        <CharString name="A">
          -4 callgsubr
          1088.979995727539 hmoveto
          -104 callsubr
        </CharString>
        <CharString name="AE">
          43 callsubr
          1177.990005493164 250.97999572753906 -41 callgsubr
        </CharString>
        <CharString name="AEacute">
          43 callsubr
          1416.990005493164 -72 callsubr
          -239 -1598.020004272461 -41 callgsubr
        </CharString>
        <CharString name="Aacute">
          -4 callgsubr
          1081 -72 callsubr
          7.9900054931640625 -1849 rmoveto
          -104 callsubr
        </CharString>
        <CharString name="Abreve">
          91 321.97999572753906 229 1062 65 callsubr
          hstem
          -14.990005493164062 1450.979995727539 vstem
          709.9799957275391 163 callgsubr
          rmoveto
          236 139 callsubr
          -153 hhcurveto
          -156 -12.990005493164062 95 48 -4.0099945068359375 hvcurveto
          -191 hlineto
          -203 -8 124 -143.02000427246094 248 hhcurveto
          379 -1612.979995727539 rmoveto
          -104 callsubr
        </CharString>
        <CharString name="Acircumflex">
          -4 callgsubr
          710.9799957275391 1757.979995727539 rmoveto
          60 callsubr
          165 92 -276.00999450683594 119 callgsubr
          378 -1757.979995727539 rmoveto
          -104 callsubr
        </CharString>
        <CharString name="Adieresis">
          91 321.97999572753906 229 1063 346 hstem
          271.99000549316406 243 callsubr
          441 193 callsubr
          233 callgsubr
          81 callsubr
          -64 callsubr
          104 97 -57 -17 callsubr
          -111 88 callsubr
          33 callsubr
          -55 callgsubr
          85 callsubr
          102.02000427246094 hvcurveto
          523 hmoveto
          147 callsubr
          -29 callsubr
          -64 callsubr
          104 97 -56 -17 callsubr
          -110.99000549316406 88 callsubr
          33 callsubr
          -55 callgsubr
          85 callsubr
          101 hvcurveto
          62 callsubr
          -1613.990005493164 rmoveto
          -104 callsubr
        </CharString>
        <CharString name="Agrave">
          -4 callgsubr
          709 7 callgsubr
          -27.009994506835938 139 callgsubr
          79 -19 callgsubr
          379.99000549316406 -1542.979995727539 rmoveto
          -104 callsubr
        </CharString>
        <CharString name="Amacron">
          91 321.97999572753906 229 1135.010009765625 221 callsubr
          418.97999572753906 149 callgsubr
          hintmask 00000000
          hintmask 11100000
          1009.9900054931641 1891.979995727539 rmoveto
          -591.0200042724609 87 callgsubr
          591.0200042724609 -47 callgsubr
          hlineto
          -65 callsubr
          -1891.979995727539 rmoveto
          -104 callsubr
        </CharString>
        <CharString name="Aogonek">
          91 23 callgsubr
          632.9900054931641 229 hstem
          941.9900054931641 135 callgsubr
          vstem
          1186.979995727539 -223 rmoveto
          -6.9799957275390625 94 84.99000549316406 63 101.00999450683594 66 rrcurveto
          70 hlineto
          -567.0099945068359 1537.990005493164 rlineto
          -322.00999450683594 hlineto
          -561.9700012207031 -1537.990005493164 rlineto
          341.9700012207031 hlineto
          101.00999450683594 321.97999572753906 rlineto
          559 hlineto
          -82 callgsubr
          -321.97999572753906 rlineto
          69 hlineto
          -104.99000549316406 -58 -120.00999450683594 186 callgsubr
          128.99000549316406 -64 callgsubr
          126.02000427246094 -13 callgsubr
          -12 -42 -29 callgsubr
          225 callsubr
          -3.0200042724609375 hvcurveto
          -687.9799957275391 774 rmoveto
          163 522 -55 callsubr
          157 43 -157 164.99000549316406 -522 rlineto
          -414.99000549316406 hlineto
          endchar
        </CharString>
        <CharString name="Aring">
          91 321.97999572753906 229 1272 146 hstem
          366.97999572753906 184 315.99000549316406 183 vstem
          1088.979995727539 hmoveto
          120 callgsubr
          hlineto
          -536 1454 88 41 -16 callgsubr
          76.99000549316406 1 123 rlinecurve
          184 1 -129 -47 callsubr
          -208 hhcurveto
          -167.02000427246094 -175.97999572753906 -66 -204 126 callgsubr
          -69 callsubr
          -117.99000549316406 53 -85.00999450683594 97 -45 -529.9799957275391 -1450.990005493164 rcurveline
          341.9700012207031 hlineto
          101.00999450683594 321.97999572753906 rlineto
          559 hlineto
          -82 callgsubr
          -321.97999572753906 rlineto
          -380.99000549316406 1822.990005493164 rmoveto
          91 -1 67.99000549316406 -41.99000549316406 -89 vvcurveto
          -104 -64 -21.020004272460938 87 callsubr
          1 vhcurveto
          -92 -65 47 -66 callsubr
          103 74 23 83 -1 hvcurveto
          -209 -1272 rmoveto
          163 522 -55 callsubr
          157 43 -157 164.99000549316406 -522 rlineto
          -414.99000549316406 hlineto
          endchar
        </CharString>
        <CharString name="Atilde">
          91 321.97999572753906 229 1051 -38 callgsubr
          -14.990005493164062 1450.979995727539 hintmask 10110000
          555.9900054931641 1734.979995727539 rmoveto
          hintmask 11010000
          115 callsubr
          24 -133 161 hhcurveto
          153.99000549316406 20 callsubr
          -49 callsubr
          hhcurveto
          hintmask 10110000
          43 callgsubr
          532.9900054931641 -1734.979995727539 rmoveto
          -104 callsubr
        </CharString>
        <CharString name="B">
          164 callsubr
          hstemhm
          -81 callgsubr
          315 451 218 callgsubr
          hintmask 11110100
          -81 callgsubr
          1523 32 callgsubr
          hintmask 11111000
          35 callgsubr
          hintmask 11110100
          -154 1 rlineto
          hintmask 11111000
          30 callgsubr
          hintmask 11110100
          15 callgsubr
        </CharString>
        <CharString name="C">
          -8 callsubr
          845.9900054931641 1537.990005493164 -98 callgsubr
        </CharString>
        <CharString name="CR">
          -1330 endchar
        </CharString>
        <CharString name="Cacute">
          -8 callsubr
          689.9900054931641 -83 callsubr
          156 -130 -98 callgsubr
        </CharString>
        <CharString name="Ccaron">
          -8 callsubr
          455.99000549316406 26 callsubr
          390 -330 -98 callgsubr
        </CharString>
        <CharString name="Ccedilla">
          -31 39 callgsubr
          272 242.99000549316406 1055.989990234375 252 104 callsubr
          326.010009765625 217 vstem
          1242.990005493164 325.97999572753906 rmoveto
          -39 -53 -162 -57 -138 hhcurveto
          -289.00999450683594 -173 -19 callsubr
          316.00999450683594 320 191 188.99000549316406 247 -47 callgsubr
          88 -58 -29 54 hvcurveto
          46 280 rlineto
          18 -96.00999450683594 -97 41 -221 hhcurveto
          -415 -331 -277 -504.00999450683594 -420.99000549316406 242.02000427246094 -296 398.99000549316406 -48.99000549316406 hvcurveto
          11 -30 6 -38 -4 -58 rrcurveto
          -103 -4 -52 -47 -65 hhcurveto
          -31.009994506835938 6 callsubr
          -20.009994506835938 -165 rlineto
          -16 25 97 215 callsubr
          -24 callgsubr
          71.99000549316406 171 6 hvcurveto
          -70 callsubr
          197 callgsubr
          -11 81 callsubr
          133 callsubr
          53.99000549316406 140 10.009994506835938 213 callgsubr
          200 callsubr
          75 30 -1 261.97999572753906 rcurveline
          endchar
        </CharString>
        <CharString name="Ccircumflex">
          -8 callsubr
          448 18 callgsubr
          397.99000549316406 -111 -98 callgsubr
        </CharString>
        <CharString name="Cdotaccent">
          -31 -97 callgsubr
          -16 callsubr
          1055.979995727539 252 75 345 104 callsubr
          229.010009765625 361 vstem
          657 -51 callsubr
          188.99000549316406 -239 -98 callgsubr
        </CharString>
        <CharString name="D">
          224 -97 callgsubr
          243.97999572753906 1069.990005493164 58 callsubr
          26 callgsubr
          -97 callsubr
          -151 hlineto
          525 -1294.009994506836 10 callgsubr
        </CharString>
        <CharString name="Dcaron">
          224 -97 callgsubr
          243.97999572753906 1069.990005493164 58 callsubr
          233 callsubr
          63 callsubr
          200 callgsubr
          181 -157 74 callsubr
          rlineto
          -202 -345.99000549316406 rmoveto
          -97 callsubr
          -151 hlineto
          525 -1294.009994506836 10 callgsubr
        </CharString>
        <CharString name="Dcroat">
          -80 callsubr
        </CharString>
        <CharString name="E">
          -76 0 -67 callgsubr
          hstem
          187.99000549316406 318.00999450683594 vstem
          187.99000549316406 1521.990005493164 -93 callsubr
        </CharString>
        <CharString name="Eacute">
          -76 0 -67 callgsubr
          31 callgsubr
          558 93 callsubr
          146 -25 callsubr
          98.97999572753906 33.02000427246094 180.02000427246094 161 87 112 rlinecurve
          -57 callsubr
          -370.00999450683594 -146 -93 callsubr
        </CharString>
        <CharString name="Ebreve">
          -76 0 -67 callgsubr
          90.99998474121094 65 callsubr
          31 callgsubr
          334.99000549316406 167 callgsubr
          -35 callsubr
          124.00999450683594 -143.02000427246094 247.99000549316406 hhcurveto
          236 190 callgsubr
          -8 46 callgsubr
          -13 95 48 -4 hvcurveto
          -191 hlineto
          -147 -437 -93 callsubr
        </CharString>
        <CharString name="Ecaron">
          -76 0 -67 callgsubr
          31 callgsubr
          323.99000549316406 -63 callsubr
          -136 -345.99000549316406 -93 callsubr
        </CharString>
        <CharString name="Ecircumflex">
          -76 0 -67 callgsubr
          31 callgsubr
          315.97999572753906 -60 callsubr
          -128 -127 -93 callsubr
        </CharString>
        <CharString name="Edieresis">
          -76 0 -67 callgsubr
          91.99998474121094 346 72 callgsubr
          -245.00999450683594 112 callgsubr
          hintmask 00000000
          hintmask 11110110
          261 113 callgsubr
          85 callsubr
          -34 callgsubr
          105.99000549316406 81 callsubr
          -64 callsubr
          104 97 -57.02000427246094 -17 callsubr
          216 callsubr
          88 callsubr
          33 callsubr
          -55 callgsubr
          vhcurveto
          524 hmoveto
          85 callsubr
          101.00999450683594 147 callsubr
          214 callgsubr
          -64 callsubr
          104 97 -56.02000427246094 -17 callsubr
          -111 -104 33 callsubr
          -55 callgsubr
          vhcurveto
          hintmask 11101000
          -597.0099945068359 -256 -93 callsubr
        </CharString>
        <CharString name="Edotaccent">
          -76 0 -67 callgsubr
          90.99998474121094 345 72 callgsubr
          18.979995727539062 361 hintmask 00000000
          hintmask 11111100
          524.9799957275391 78 callsubr
          102.02000427246094 233 callgsubr
          83.00999450683594 71 callgsubr
          88 callsubr
          73 callsubr
          vhcurveto
          hintmask 11101000
          -337 -255 -93 callsubr
        </CharString>
        <CharString name="Egrave">
          -76 0 -67 callgsubr
          31 callgsubr
          698 1542.979995727539 rmoveto
          145.99000549316406 125.00999450683594 -27 0 callgsubr
          -217 150 callsubr
          -29 callsubr
          -19 callgsubr
          -510.00999450683594 160 callsubr
          -93 callsubr
        </CharString>
        <CharString name="Emacron">
          -76 0 -67 callgsubr
          164.00999450683594 205.99000549316406 72 callgsubr
          55 callsubr
          149 callgsubr
          hintmask 00000000
          hintmask 11110100
          182 callgsubr
          1891.979995727539 rmoveto
          187 callsubr
          -591.0099945068359 vlineto
          hintmask 11111000
          -220 -369.99000549316406 -93 callsubr
        </CharString>
        <CharString name="Eng">
          290 -440.99000549316406 1962.979995727539 hstem
          187.47000122070312 314.50999450683594 614.010009765625 315 vstem
          1431 408.99000549316406 rmoveto
          1113 -315 -757 vlineto
          35 -360 -112 222 -544.0099945068359 895 rlineto
          -308 hlineto
          1 -77 callsubr
          rlineto
          314 740.9900054931641 hlineto
          -38 351 115 -231 526 -842.0200042724609 rlineto
          -139.97999572753906 -193 -146 -171 -49 vhcurveto
          70 41 callsubr
          269 12 257 162 63 229.99000549316406 rlinecurve
          37.99000549316406 134 201 callgsubr
          62 callsubr
          187 vvcurveto
          endchar
        </CharString>
        <CharString name="Eogonek">
          -76 23 callgsubr
          311.010009765625 -67 callgsubr
          hstem
          -78 callgsubr
          189.99000549316406 245 vstem
          1061.990005493164 -311 rmoveto
          -67.02000427246094 -51 23 65 54 callsubr
          hvcurveto
          -7 94 84.99000549316406 63 101 66 rrcurveto
          61 250.97999572753906 -675 408 467.99000549316406 241 -467.99000549316406 378 17 callsubr
          -77 callsubr
          724 hlineto
          -105 -58 -120.00999450683594 186 callgsubr
          129 -64 callgsubr
          2 callgsubr
          hhcurveto
          -66 callsubr
          176 callgsubr
          -41.97999572753906 -44.02000427246094 -8 -38.99000549316406 hhcurveto
          endchar
        </CharString>
        <CharString name="Eth">
          -80 callsubr
        </CharString>
        <CharString name="Euro">
          174 -28 211 callsubr
          270.989990234375 192 193 192 253.010009765625 180 callgsubr
          hstem
          279.97999572753906 332 vstem
          1320 284 rmoveto
          -46 -10 callsubr
          -126 -37 235 callsubr
          hhcurveto
          -201.99000549316406 -76 callsubr
          195 callgsubr
          168 -46 hvcurveto
          452 192 -481 hlineto
          -3 40.02000427246094 -1 41.97999572753906 43 vvcurveto
          24 1 22 1 22 vhcurveto
          532 192 -496 hlineto
          59.99000549316406 175 127.02000427246094 -29 callsubr
          161 -1 165.99000549316406 -1 65 -25 -9 callsubr
          -42 53 243.02000427246094 rcurveline
          -85.00999450683594 18.990005493164062 134 callgsubr
          50 -222 -8 -321 -11 -233 -165.99000549316406 -92 -312.00999450683594 rrcurveto
          -194 -192 158 hlineto
          -5 -44 -2 -44.99000549316406 -48 vvcurveto
          -19 0 -19 1 -18 vhcurveto
          -188.99000549316406 -192 196 callgsubr
          hlineto
          -314.97999572753906 70 216 -184.99000549316406 357 hhcurveto
          285 -16 callgsubr
          183 callgsubr
          12 86 hvcurveto
          -59.99000549316406 234 rlineto
          endchar
        </CharString>
        <CharString name="F">
          138 callsubr
          222 callgsubr
          322 83 callsubr
          322 634 442 244.99000549316406 -442 399.00999450683594 601 244 -923.0099945068359 vlineto
          endchar
        </CharString>
        <CharString name="G">
          -37 callsubr
          837 820 74 callgsubr
          -106 callsubr
          -535 vlineto
          endchar
        </CharString>
        <CharString name="Gbreve">
          -79 callgsubr
          76 65 callsubr
          hstem
          124 callgsubr
          639.0200042724609 301.99000549316406 vstem
          839.9900054931641 193 callsubr
          236 134.99000549316406 143 203 75 callsubr
          46 callgsubr
          -13 95 48 -4 hvcurveto
          -191 hlineto
          203 callsubr
          54 callsubr
          -793.9900054931641 74 callgsubr
          -106 callsubr
          -535 vlineto
          endchar
        </CharString>
        <CharString name="Gcaron">
          -37 callsubr
          951.9900054931641 1576.979995727539 rmoveto
          267 293 -154 91 -222.99000549316406 -180.99000549316406 -220 180.99000549316406 -157 -92 268 -292 rlineto
          219 hlineto
          -115 -756.9900054931641 74 callgsubr
          -106 callsubr
          -535 vlineto
          endchar
        </CharString>
        <CharString name="Gcircumflex">
          -37 callsubr
          840.9900054931641 1758.990005493164 rmoveto
          110 callsubr
          -11 callgsubr
          162 -90.00999450683594 222 199 rlineto
          -4 -938.9900054931641 74 callgsubr
          -106 callsubr
          -535 vlineto
          endchar
        </CharString>
        <CharString name="Gcommaaccent">
          -79 callgsubr
          hstem
          124 callgsubr
          326.00999450683594 231 82.010009765625 301.99000549316406 vstem
          837 820 74 callgsubr
          -106 callsubr
          -535 vlineto
          235 callgsubr
          -905.9900054931641 rmoveto
          -184 184 callgsubr
          205 callsubr
          -17.990005493164062 -20 vhcurveto
          -77 callgsubr
          vlineto
          110.99000549316406 -44.02000427246094 rlineto
          42 15.020004272460938 179 callgsubr
          16 callgsubr
          endchar
        </CharString>
        <CharString name="Gdotaccent">
          -79 callgsubr
          76 345 224 callgsubr
          235.00999450683594 361 43.010009765625 301.99000549316406 hintmask 00000000
          hintmask 11111110
          837.9799957275391 193 callsubr
          106 83.00999450683594 127 callsubr
          -100 70 -64 102 hvcurveto
          62 callgsubr
          -793.9900054931641 74 callgsubr
          hintmask 11101010
          -106 callsubr
          vlineto
          hintmask 11111110
          -535 hlineto
          endchar
        </CharString>
        <CharString name="Gtilde">
          -79 callgsubr
          65.010009765625 224.99000549316406 -92.00001525878906 222 224 callgsubr
          639.0200042724609 301.99000549316406 hintmask 11101110
          686 1735.990005493164 rmoveto
          hintmask 11110110
          115 callsubr
          66 callsubr
          131 45 hvcurveto
          -126 -56 callsubr
          159 callgsubr
          hintmask 11101110
          -102.99000549316406 -29 130 -162 hhcurveto
          -153 -104 -100 -126 -44 hvcurveto
          167 callsubr
          37 59 56 58 hhcurveto
          151 -915.9900054931641 74 callgsubr
          -106 callsubr
          -535 vlineto
          endchar
        </CharString>
        <CharString name="H">
          82 callsubr
          187.99000549316406 1521.990005493164 57 callsubr
        </CharString>
        <CharString name="Hbar">
          291 620.9900054931641 233 191 192 222 callgsubr
          322 601 321.97999572753906 vstem
          1599 1236.990005493164 rmoveto
          -166 285 -321.99000549316406 -285 -601 285 -322 -285 -164 -192 164 -1044.990005493164 322 620.9900054931641 601 -620.9900054931641 321.99000549316406 1044.990005493164 166 192 hlineto
          -488 -383 rmoveto
          -601 191 601 -191 hlineto
          endchar
        </CharString>
        <CharString name="Hcircumflex">
          82 callsubr
          415.99000549316406 -60 callsubr
          -228 -127 57 callsubr
        </CharString>
        <CharString name="I">
          -608 0 -73 callgsubr
          7 callsubr
          vstem
          200.99000549316406 1521.990005493164 -75 callgsubr
          endchar
        </CharString>
        <CharString name="I.uc">
          -72 callgsubr
        </CharString>
        <CharString name="IJ">
          190 -332 1853.990005493164 7 callsubr
          479.989990234375 320 vstem
          200.99000549316406 1521.990005493164 -43 callgsubr
        </CharString>
        <CharString name="IJ_acutecomb">
          190 -332 2332 7 callsubr
          479.989990234375 320 vstem
          966.9799957275391 1687.979995727539 rmoveto
          146 41 callsubr
          99 33 180 161 87 111.99000549316406 rlinecurve
          136 callgsubr
          131 -18 -51 -249.02000427246094 -235 -28 -26.009994506835938 rlinecurve
          -747.9900054931641 62 callgsubr
          rmoveto
          79 callgsubr
          33 180 161.02000427246094 87 111.99000549316406 rlinecurve
          -217 131 -18 -51 -249 -235 49 callsubr
          -18 -165 -43 callgsubr
        </CharString>
        <CharString name="Iacute">
          -608 0 1979.979995727539 7 callsubr
          vstem
          98 callsubr
          -83 callsubr
          -18 -146 -75 callgsubr
          endchar
        </CharString>
        <CharString name="Ibreve">
          -608 163 callgsubr
          65 callsubr
          7 callsubr
          vstem
          -3.9900054931640625 167 callgsubr
          -35 callsubr
          123.97999572753906 27 callsubr
          -12.990005493164062 95 48 126 callgsubr
          -190.97000122070312 hlineto
          204.97999572753906 -437 -75 callgsubr
          endchar
        </CharString>
        <CharString name="Icircumflex">
          -608 0 1958.990005493164 7 callsubr
          vstem
          -23 1648.990005493164 rmoveto
          161.99000549316406 3 callgsubr
          221.99000549316406 198.99000549316406 60 callsubr
          165 189 callsubr
          200 callgsubr
          hlineto
          -273.97999572753906 -310 rlineto
          223.99000549316406 -127 -75 callgsubr
          endchar
        </CharString>
        <CharString name="Idieresis">
          -608 214 callsubr
          346 hstemhm
          -78 355 -76.00999450683594 320 -75 353.99000549316406 hintmask 00000000
          hintmask 11000000
          -78 29 callgsubr
          hintmask 10100000
          524 hmoveto
          85 callsubr
          101.00999450683594 vhcurveto
          hintmask 10010000
          118 callsubr
          hvcurveto
          hintmask 10100000
          -39 callgsubr
          hvcurveto
          -245 -256 -75 callgsubr
          endchar
        </CharString>
        <CharString name="Idotaccent">
          -72 callgsubr
        </CharString>
        <CharString name="Igrave">
          -608 0 1979.979995727539 7 callsubr
          vstem
          358.99000549316406 7 callgsubr
          -27.020004272460938 0 callgsubr
          -216.97999572753906 150 callsubr
          -65 callsubr
          -19 callgsubr
          -158 160 callsubr
          -75 callgsubr
          endchar
        </CharString>
        <CharString name="Imacron">
          -608 1685.990005493164 -47 callgsubr
          7 callsubr
          vstem
          69 105 callsubr
          132 -369.99000549316406 -75 callgsubr
          endchar
        </CharString>
        <CharString name="Iogonek">
          -599 23 callgsubr
          hstemhm
          40.97999572753906 245 -84.989990234375 320 hintmask 10100000
          407 -311 rmoveto
          -10 callsubr
          -51 23 65 -3 hvcurveto
          201 callgsubr
          94 85 63 101 66 rrcurveto
          56 14 callgsubr
          -77 callsubr
          55.99000549316406 hlineto
          hintmask 11000000
          -105 -58 -120 -108 9 216 callgsubr
          220 callgsubr
          -64 callgsubr
          126.02000427246094 -13 callgsubr
          hintmask 10100000
          -12 -42 -29 callgsubr
          -8 -39 hhcurveto
          endchar
        </CharString>
        <CharString name="Itilde">
          -608 1601.979995727539 -38 callgsubr
          200.99000549316406 320 hintmask 01100000
          -64 callgsubr
          1730.990005493164 rmoveto
          124.99000549316406 -98 207 callsubr
          55.99000549316406 58 hhcurveto
          hintmask 10100000
          114.02000427246094 23.979995727539062 70 callsubr
          211 callgsubr
          44.99000549316406 hvcurveto
          50 callsubr
          -56 callsubr
          rlineto
          -51 -36.99000549316406 -51.02000427246094 117 callsubr
          -103.99000549316406 -100 50 callsubr
          -44 hvcurveto
          273.97999572753906 -209 -75 callgsubr
          endchar
        </CharString>
        <CharString name="J">
          -532 -332 1853.990005493164 hstem
          278.99000549316406 320 vstem
          -9.990005493164062 -164 -32 callsubr
        </CharString>
        <CharString name="Jcircumflex">
          -532 -332 2292 hstem
          278.99000549316406 320 vstem
          47.97999572753906 42 callsubr
          -57.970001220703125 -1813.990005493164 -32 callsubr
        </CharString>
        <CharString name="K">
          114 0 -73 callgsubr
          hstem
          187.99000549316406 318.00999450683594 -53 callgsubr
          endchar
        </CharString>
        <CharString name="Kcommaaccent">
          114 -560 2082 hstem
          -78 callgsubr
          177.99000549316406 -19 callsubr
          -53 callgsubr
          -540 -195.99000549316406 rmoveto
          -184 -98 rlineto
          -50 vlineto
          28 -13 34 -53.99000549316406 -53 vvcurveto
          -74 -12 -42 -18 -20 vhcurveto
          -25.990005493164062 vlineto
          -89 callgsubr
          endchar
        </CharString>
        <CharString name="L">
          -210 0 241.99000549316406 hstem
          187.99000549316406 318.00999450683594 -5 callgsubr
          endchar
        </CharString>
        <CharString name="Lacute">
          153 callgsubr
          181 callgsubr
          -83 callsubr
          -19 -146 95 callgsubr
        </CharString>
        <CharString name="Lcaron">
          -210 174 callgsubr
          353.99000549316406 239 vstem
          845.9900054931641 1037.990005493164 rmoveto
          133 -28 rlineto
          52 60 181 callsubr
          60 callgsubr
          194 callsubr
          34 callsubr
          -33 27.020004272460938 125 callgsubr
          -10.020004272460938 41 callsubr
          -13 -61 8 -23 rcurveline
          -658 484 95 callgsubr
        </CharString>
        <CharString name="Lcommaaccent">
          -210 0 -73 callsubr
          72 callgsubr
          -55 callsubr
          -19 callsubr
          hintmask 11000000
          187.99000549316406 1521.990005493164 25 callgsubr
          332 -2037.979995727539 rmoveto
          hintmask 11100000
          -89 callgsubr
          -183.99000549316406 65 callgsubr
          hintmask 11000000
          -77 callgsubr
          vlineto
          endchar
        </CharString>
        <CharString name="Ldot">
          80 0 -73 callsubr
          409.989990234375 405.00999450683594 hstem
          -78 callgsubr
          376.99000549316406 148 callgsubr
          -5 callgsubr
          695.0099945068359 -677.0099945068359 rmoveto
          -110 1 79 -83 107 hhcurveto
          -42 callsubr
          213 callgsubr
          98.02000427246094 115 209 callgsubr
          178 callsubr
          -66 callsubr
          -116 hhcurveto
          -112 -93 221 callgsubr
          1 hvcurveto
          endchar
        </CharString>
        <CharString name="Lslash">
          153 callgsubr
          506 -73 callsubr
          rmoveto
          478 vlineto
          378 139 -65 171.99000549316406 -313 -116 rlineto
          607.0099945068359 115 callgsubr
          -724.0099945068359 vlineto
          -163 -59.99000549316406 65 -170 98 36 rlineto
          -604 -1 callsubr
          vlineto
          endchar
        </CharString>
        <CharString name="M">
          556 1281.979995727539 240 hstem
          42 callgsubr
          1746 vstem
          232 1521.990005493164 -54 callgsubr
        </CharString>
        <CharString name="N">
          290 0 -73 callgsubr
          138 callgsubr
          1135.979995727539 61 callgsubr
          -757 vlineto
          -96 callsubr
          hlineto
          endchar
        </CharString>
        <CharString name="NULL">
          -1330 endchar
        </CharString>
        <CharString name="Nacute">
          292 0 1979.979995727539 138 callgsubr
          1180 -72 callsubr
          -44.02000427246094 -327 rmoveto
          -757 vlineto
          -96 callsubr
          hlineto
          endchar
        </CharString>
        <CharString name="Ncaron">
          292 0 1959.990005493164 138 callgsubr
          920.9900054931641 1576 rmoveto
          11 callgsubr
          268 53 callgsubr
          219 hlineto
          215 -54 rmoveto
          -757 vlineto
          -96 callsubr
          hlineto
          endchar
        </CharString>
        <CharString name="Ncommaaccent">
          292 -560 2082 224 callsubr
          231.00999450683594 -19 callsubr
          189.99998474121094 34 callgsubr
          vstem
          1135.979995727539 61 callgsubr
          -757 vlineto
          -96 callsubr
          hlineto
          -298.97999572753906 -1607.990005493164 rmoveto
          -184.02000427246094 184 callgsubr
          28 -13 34.02000427246094 45 callsubr
          -77 callgsubr
          vlineto
          208 callsubr
          235 callgsubr
          15.020004272460938 134 callsubr
          45 callgsubr
          -41.99000549316406 10.020004272460938 vhcurveto
          endchar
        </CharString>
        <CharString name="Ntilde">
          292 1601.979995727539 -38 callgsubr
          -4 callsubr
          hintmask 01110000
          654.9900054931641 1734.979995727539 rmoveto
          hintmask 10110000
          115 callsubr
          24 -133 161 hhcurveto
          153.99000549316406 20 callsubr
          -49 callsubr
          hhcurveto
          hintmask 01110000
          43 callgsubr
          480.99000549316406 -212.99000549316406 rmoveto
          -757 vlineto
          -96 callsubr
          hlineto
          endchar
        </CharString>
        <CharString name="O">
          -85 callsubr
          98 768.9799957275391 -105 callgsubr
        </CharString>
        <CharString name="OE">
          803 -18 callsubr
          -221 250.97999572753906 412.010009765625 98 callgsubr
          374.00999450683594 -7 callgsubr
          -225.99000549316406 -73 callsubr
          hstemhm
          233 callgsubr
          324.99000549316406 623.0099945068359 318.00999450683594 hintmask 01110110
          1372 250.97999572753906 rmoveto
          412.02000427246094 449.99000549316406 98 callgsubr
          -449.99000549316406 374 17 callsubr
          vlineto
          hintmask 10101110
          -30 vlineto
          -63 32 -80 15 -91 -1 -399.00999450683594 -4 -304.99000549316406 -263 -10.020004272460938 -502 -8.990005493164062 -454.99000549316406 257.97999572753906 -333 435.02000427246094 3.0200042724609375 100 1 93 17.979995727539062 70.99000549316406 38.99000549316406 rrcurveto
          hintmask 01110110
          -41.97999572753906 993.0200042724609 250.97999572753906 -675 vlineto
          hintmask 10101110
          -568.0200042724609 -29.990005493164062 rmoveto
          -240.99000549316406 235 callsubr
          215.99000549316406 321 425 201 113 188 114 71 -50 -55.99000549316406 48.99000549316406 hvcurveto
          -871 vlineto
          236 callgsubr
          -59 33 callsubr
          -24.990005493164062 -108.00999450683594 hhcurveto
          endchar
        </CharString>
        <CharString name="Oacute">
          -85 callsubr
          680.9799957275391 1704 rmoveto
          79 callgsubr
          33 180 161 87 112 rlinecurve
          106 callgsubr
          -582.9900054931641 -935.0200042724609 -105 callgsubr
        </CharString>
        <CharString name="Obreve">
          265 -18 callsubr
          1074.990005493164 -73 callsubr
          74.99998474121094 65 callsubr
          -52 callsubr
          457.99000549316406 167 callgsubr
          -8 124 -143.02000427246094 248 hhcurveto
          236 134.99000549316406 190 callsubr
          75 callsubr
          46 callgsubr
          -13 95 48 -3.9900054931640625 hvcurveto
          -191 hlineto
          -360 -1190.009994506836 -105 callgsubr
        </CharString>
        <CharString name="Ocircumflex">
          -85 callsubr
          438.99000549316406 -60 callsubr
          -340.99000549316406 -880 -105 callgsubr
        </CharString>
        <CharString name="Odieresis">
          265 -18 callsubr
          1074.990005493164 -73 callsubr
          75.99998474121094 346 hstemhm
          98 -58 callsubr
          114 callsubr
          354.97999572753906 169 354.02000427246094 -94.00999450683594 -58 callsubr
          hintmask 00000000
          hintmask 11101100
          384 113 callgsubr
          85 callsubr
          81 callgsubr
          80 -64 callsubr
          104 97 -57 -17 callsubr
          -111 -104 63 callgsubr
          -55 callgsubr
          vhcurveto
          523.9799957275391 hmoveto
          -99 -17 callsubr
          -65 101 147 callsubr
          -29 callsubr
          103 callgsubr
          hintmask 11110010
          -809.9900054931641 -1009.0099945068359 -105 callgsubr
        </CharString>
        <CharString name="Ograve">
          -85 callsubr
          820.9799957275391 7 callgsubr
          2 callsubr
          0 callgsubr
          -217 150 callsubr
          214 callgsubr
          -109.02000427246094 197 -167 -47 callsubr
          -30 rlinecurve
          -722.9900054931641 -774 -105 callgsubr
        </CharString>
        <CharString name="Ohungarumlaut">
          -85 callsubr
          449.99000549316406 242 callsubr
          214 callgsubr
          35 127 141 82 99 callsubr
          rlinecurve
          -230 227 callgsubr
          513 hmoveto
          199 callgsubr
          -115 82 35 130 141 77 115 rlinecurve
          -226.02000427246094 -42 callsubr
          -17.979995727539062 -51 -178 237 callgsubr
          -28 -26 rlinecurve
          -865 -898.0099945068359 -105 callgsubr
        </CharString>
        <CharString name="Omacron">
          265 -18 callsubr
          1074.990005493164 -73 callsubr
          148.00999450683594 221 callsubr
          98 -58 callsubr
          103.989990234375 149 callgsubr
          46.00001525878906 -58 callsubr
          hintmask 00000000
          hintmask 11111100
          530.9799957275391 1891.979995727539 rmoveto
          87 callgsubr
          591.0200042724609 -47 callgsubr
          -591.0200042724609 vlineto
          -432.99000549316406 -1123 rmoveto
          -9.009994506835938 -467.99000549316406 264 -326 438 9.020004272460938 rrcurveto
          hintmask 11110100
          406 7.9900054931640625 290 245 10 525.9900054931641 9.009994506835938 469.00999450683594 -264.00999450683594 318 -421 -12 rrcurveto
          hintmask 11111100
          -412 -12 -301 -230 -10 -527.0099945068359 rrcurveto
          hintmask 11110100
          1070 4.0200042724609375 rmoveto
          -381.00999450683594 -143.99000549316406 -170.99000549316406 -226.02000427246094 -249 -122 237 300 391 175 147 212 238 116 -224 -298.97999572753906 vhcurveto
          endchar
        </CharString>
        <CharString name="Oslash">
          -85 callsubr
          1120.990005493164 1480.990005493164 -87 callsubr
        </CharString>
        <CharString name="Oslashacute">
          -85 callsubr
          1111 1885 rmoveto
          -57 callsubr
          145.99000549316406 -25 callsubr
          99 33 180.02000427246094 161 87 112 rlinecurve
          10 -404 -87 callsubr
        </CharString>
        <CharString name="Otilde">
          265 -18 callsubr
          1074.990005493164 -73 callsubr
          63.99998474121094 -38 callgsubr
          -39 callsubr
          hintmask 11011100
          389 1730.990005493164 rmoveto
          167 callsubr
          37 59 55.99000549316406 58 hhcurveto
          hintmask 11101100
          115 callsubr
          24 -133 199 callgsubr
          hhcurveto
          154 20 callsubr
          -10 callsubr
          hhcurveto
          hintmask 11011100
          -103 -29 130 -162 18 callsubr
          -291 -962.0099945068359 -105 callgsubr
        </CharString>
        <CharString name="P">
          165 callgsubr
          hstem
          -78 callgsubr
          466.97999572753906 316 vstem
          187.99000549316406 1521.990005493164 82 callgsubr
          76 callsubr
          -96.00999450683594 hlineto
          -14 callsubr
        </CharString>
        <CharString name="Q">
          265 -326 245 1376.990005493164 -73 callsubr
          -52 callsubr
          1347.990005493164 -81 rmoveto
          -166 -132 7 82.97999572753906 -63 hvcurveto
          299.99000549316406 197 callgsubr
          202.02000427246094 243 7.9900054931640625 437 9.009994506835938 469.00999450683594 -264.00999450683594 318 -421 -12 -412 -12 -301 -230 -10 -527.0099945068359 -35 callsubr
          -439.99000549316406 233 -315 392 -27.990005493164062 rrcurveto
          -240.99000549316406 76.99000549316406 222 -71 296 hhcurveto
          95 116 30 20.990005493164062 29 hvcurveto
          219.02000427246094 vlineto
          -15.009994506835938 -46 -76 callsubr
          -10 -54 hhcurveto
          -921 838.9799957275391 rmoveto
          391 175 147 212 238 116 -224 -298.97999572753906 -381.00999450683594 -143.99000549316406 -170.99000549316406 -226.02000427246094 -249 -122 237 300 vhcurveto
          endchar
        </CharString>
        <CharString name="R">
          56 callsubr
          1317.990005493164 110 -101 callgsubr
          endchar
        </CharString>
        <CharString name="Racute">
          56 callsubr
          1124.990005493164 1849 rmoveto
          132 callgsubr
          -17.990005493164062 -51 -249.02000427246094 -62 callsubr
          193 -1739 -101 callgsubr
          endchar
        </CharString>
        <CharString name="Rcaron">
          56 callsubr
          866 1576 rmoveto
          33 callgsubr
          -154 -33 callsubr
          -222.99000549316406 -181 200 callgsubr
          181 -157 74 callsubr
          268 53 callgsubr
          219.02000427246094 hlineto
          452 -1466 -101 callgsubr
          endchar
        </CharString>
        <CharString name="Rcommaaccent">
          -31 callsubr
          166.99000549316406 -19 callsubr
          73.99998474121094 309 vstem
          1317.990005493164 110 -101 callgsubr
          289 -1368.990005493164 rmoveto
          -184.02000427246094 184 callgsubr
          161 callgsubr
          -13 34 45 callsubr
          -77 callgsubr
          vlineto
          -89 callgsubr
          endchar
        </CharString>
        <CharString name="S">
          -53 callsubr
          151.97999572753906 197 callgsubr
          -30 callgsubr
          -103 callsubr
          55 callgsubr
          -255 rlineto
          endchar
        </CharString>
        <CharString name="Sacute">
          -53 callsubr
          506.97999572753906 -74 callsubr
          106 callgsubr
          -355 -1594 -30 callgsubr
          -103 callsubr
          55 callgsubr
          -255 rlineto
          endchar
        </CharString>
        <CharString name="Scaron">
          -53 callsubr
          273 63 callsubr
          -220 181 -157 74 callsubr
          rlineto
          -121.02000427246094 -1793.990005493164 -30 callgsubr
          -103 callsubr
          55 callgsubr
          -255 rlineto
          endchar
        </CharString>
        <CharString name="Scedilla">
          -123 39 callgsubr
          272 -16 callsubr
          1066.989990234375 237.99000549316406 hstemhm
          138.99000549316406 -92 callsubr
          86.99998474121094 217 57.010009765625 320 hintmask 00000000
          hintmask 11111100
          1131.990005493164 182 callgsubr
          rmoveto
          247 -179 109 -239 126.00999450683594 vhcurveto
          -101 callsubr
          55 callgsubr
          -255 rlineto
          hintmask 11111000
          49 -30 156 -44.99000549316406 170 -12 86 callsubr
          -29 6 -37.99000549316406 -4 -55 9 callsubr
          76 -11 82 -27 54 rrcurveto
          hintmask 11111100
          250 34 callsubr
          162 145 239.99000549316406 vvcurveto
          endchar
        </CharString>
        <CharString name="Scircumflex">
          -53 callsubr
          199 callsubr
          -60 callsubr
          50 callgsubr
          -1575 -30 callgsubr
          -103 callsubr
          55 callgsubr
          -255 rlineto
          endchar
        </CharString>
        <CharString name="Scommaaccent">
          -123 -97 callgsubr
          248.97999572753906 1066.990005493164 237.99000549316406 hstemhm
          138.99000549316406 -92 callsubr
          92.99998474121094 -19 callsubr
          37.02000427246094 320 hintmask 11101000
          151.97999572753906 197 callgsubr
          -30 callgsubr
          -103 callsubr
          55 callgsubr
          -255 rlineto
          362 -589.9799957275391 rmoveto
          hintmask 11111000
          -89 callgsubr
          -183.99000549316406 65 callgsubr
          hintmask 11101000
          -77 callgsubr
          vlineto
          endchar
        </CharString>
        <CharString name="T">
          -80 1277.990005493164 67 callgsubr
          465.97999572753906 97 callsubr
          -21 callsubr
          endchar
        </CharString>
        <CharString name="Tbar">
          -80 596.9900054931641 199 482 67 callgsubr
          1219.990005493164 97 callsubr
          rmoveto
          244 -1190.009994506836 -244 436 -482 -273 -199 273 -596.9900054931641 320 596.9900054931641 289.02000427246094 199 -289.02000427246094 482 434.00999450683594 vlineto
          endchar
        </CharString>
        <CharString name="Tcaron">
          -80 1277.990005493164 67 callgsubr
          135 callgsubr
          15 callsubr
          219.02000427246094 hlineto
          33 callgsubr
          -154 -33 callsubr
          -222.99000549316406 -181 200 callgsubr
          181 -157 74 callsubr
          rlineto
          221 -589.9900054931641 -21 callsubr
          endchar
        </CharString>
        <CharString name="Thorn">
          29 256.97999572753906 243.00999450683594 546.0000152587891 98 callgsubr
          hstem
          -78 callgsubr
          460.97999572753906 315 vstem
          748.9900054931641 1286.979995727539 rmoveto
          -86 -84 75 callsubr
          -4.0200042724609375 -73 hvcurveto
          247 115 callgsubr
          39 callsubr
          265.99000549316406 vlineto
          -3 40 61.99000549316406 -6 94 hhcurveto
          376 204 204 344 331 -206.99000549316406 151 -326 hvcurveto
          -87 -786.9900054931641 rmoveto
          55 callgsubr
          -57 0 10 -53.99000549316406 hvcurveto
          518 vlineto
          46.99000549316406 12 58 4 48 2 rrcurveto
          200 7.9900054931640625 -56 callsubr
          -86 -165.99000549316406 vvcurveto
          -258.00999450683594 -140.99000549316406 -29 callgsubr
          -164 vhcurveto
          endchar
        </CharString>
        <CharString name="U">
          -63 callgsubr
          150 652.9799957275391 -104 callgsubr
        </CharString>
        <CharString name="Uacute">
          -63 callgsubr
          625.9900054931641 -83 callsubr
          -476 -1015.0099945068359 -104 callgsubr
        </CharString>
        <CharString name="Ubreve">
          195 -97 callgsubr
          253.99000549316406 1374.979995727539 65 callsubr
          hstem
          150.97999572753906 315 597.010009765625 312.99000549316406 vstem
          402.97999572753906 167 callgsubr
          75 callsubr
          123.99000549316406 27 callsubr
          -12.979995727539062 95 48 126 callgsubr
          -191 hlineto
          -252.99000549316406 -1306.009994506836 -104 callgsubr
        </CharString>
        <CharString name="Ucircumflex">
          -63 callgsubr
          384 18 callgsubr
          -234 -996 -104 callgsubr
        </CharString>
        <CharString name="Udieresis">
          195 -97 callgsubr
          253.99000549316406 1375.979995727539 346 hstemhm
          150.97999572753906 315 -136.989990234375 112 callgsubr
          -143.99000549316406 312.99000549316406 hintmask 11100100
          -58 callsubr
          113 callgsubr
          85 callsubr
          -34 callgsubr
          vhcurveto
          hintmask 11010100
          106 80 -64 callsubr
          104 97 -57 -17 callsubr
          -111 hvcurveto
          hintmask 11100100
          -39 callgsubr
          hvcurveto
          hintmask 11101000
          524 hmoveto
          85 callsubr
          101 vhcurveto
          hintmask 11100100
          41 callgsubr
          123 callsubr
          hvcurveto
          hintmask 11101000
          -39 callgsubr
          hvcurveto
          hintmask 11100100
          -703 -1125.009994506836 -104 callgsubr
        </CharString>
        <CharString name="Ugrave">
          -63 callgsubr
          765.9900054931641 7 callgsubr
          -27.009994506835938 139 callgsubr
          79 -19 callgsubr
          -616 -890 -104 callgsubr
        </CharString>
        <CharString name="Uhungarumlaut">
          -63 callgsubr
          395 242 callsubr
          79 35 127 141 82 99 callsubr
          rlinecurve
          -229.99000549316406 227 callgsubr
          512.9900054931641 hmoveto
          161 -115 82 35 75 callgsubr
          141 77 115 rlinecurve
          -226 -42 callsubr
          -18 -51 -177.99000549316406 237 callgsubr
          -28.020004272460938 -26 rlinecurve
          -757.9900054931641 -1014.0099945068359 -104 callgsubr
        </CharString>
        <CharString name="Umacron">
          195 -97 callgsubr
          253.99000549316406 1447.990005493164 221 callsubr
          150.97999572753906 315 10.010009765625 148 callsubr
          -3.9900054931640625 312.99000549316406 hintmask 00000000
          hintmask 11010000
          476 105 callsubr
          hintmask 11101000
          -326 -1239 -104 callgsubr
        </CharString>
        <CharString name="Uogonek">
          195 23 callgsubr
          295.02000427246094 253.99000549316406 hstem
          150.97999572753906 315 155.010009765625 245 197 312.99000549316406 vstem
          1062.990005493164 61 callgsubr
          68 callsubr
          -338.99000549316406 -104 -93 -192 -195 -108 76.99000549316406 355 1 vhcurveto
          1.9900054931640625 852.0099945068359 rlineto
          -315 hlineto
          -69 callsubr
          -869.0099945068359 rlineto
          -402.99000549316406 -1 153 -265.97999572753906 455.99000549316406 hhcurveto
          18 hlineto
          -88 -60 -75 3 callgsubr
          8 -130 220 callgsubr
          -93 126 -13 callgsubr
          -12 -41.99000549316406 -44 225 callsubr
          54 callsubr
          hvcurveto
          95 -16 callgsubr
          81 -17 callsubr
          61.99000549316406 vhcurveto
          253.99000549316406 77 128 196 callgsubr
          335.02000427246094 vvcurveto
          881.9900054931641 -313 vlineto
          endchar
        </CharString>
        <CharString name="Uring">
          195 -97 callgsubr
          253.99000549316406 97 callsubr
          152 256 146 hstemhm
          150.97999572753906 315 -41.989990234375 183.99000549316406 316.00999450683594 149 callsubr
          -29 callgsubr
          312.99000549316406 hintmask 00000000
          hintmask 11101100
          424 1799.990005493164 rmoveto
          -181 -3 2 callgsubr
          -102.99000549316406 215.02000427246094 hhcurveto
          -23 callgsubr
          166 76 204 1.9900054931640625 hvcurveto
          184 1 -129 -14 callgsubr
          -207.99000549316406 hhcurveto
          -167 -176 -66.00999450683594 -204 -4 hvcurveto
          500 75 callsubr
          rmoveto
          88 callsubr
          -64 160 callsubr
          -95.00999450683594 1 vhcurveto
          -92 -65 47 -28 callsubr
          103.02000427246094 74 23 83 -1 hvcurveto
          91 -1 181 callsubr
          -42 40 callsubr
          vvcurveto
          hintmask 11110010
          -774 -1139.020004272461 -104 callgsubr
        </CharString>
        <CharString name="Utilde">
          195 -97 callgsubr
          253.99000549316406 1363.979995727539 -38 callgsubr
          150.97999572753906 315 597.010009765625 312.99000549316406 hintmask 10111000
          333.99000549316406 1730.990005493164 108 callgsubr
          55.99000549316406 58 hhcurveto
          hintmask 11011000
          114.00999450683594 23.990005493164062 -133 161 91 callsubr
          211 callgsubr
          45.02000427246094 hvcurveto
          -126.00999450683594 -56 callsubr
          rlineto
          -51 -36.99000549316406 -51.02000427246094 230 callsubr
          hintmask 10111000
          -103 -29 130 -162.02000427246094 hhcurveto
          150 callgsubr
          232 callgsubr
          -44 hvcurveto
          -183.99000549316406 -1078.009994506836 -104 callgsubr
        </CharString>
        <CharString name="V">
          56 -6 1527.990005493164 hstem
          -4.9900054931640625 1395.9700012207031 vstem
          -5 61 callgsubr
          565.9799957275391 -1527.990005493164 rlineto
          270.00999450683594 hlineto
          559.9900054931641 1527.990005493164 rlineto
          -338.99000549316406 hlineto
          -269 -831 -82 -290 -81 290 -284 831 rlineto
          -340.99000549316406 hlineto
          endchar
        </CharString>
        <CharString name="W">
          643 -97 callgsubr
          1537.979995727539 92 callsubr
          1649.990005493164 1521.990005493164 -100 callsubr
        </CharString>
        <CharString name="Wacute">
          643 -97 callgsubr
          1995.979995727539 92 callsubr
          1335.990005493164 -72 callsubr
          314 -327 -100 callsubr
        </CharString>
        <CharString name="Wcircumflex">
          643 -97 callgsubr
          1974.979995727539 92 callsubr
          965.9799957275391 1757.979995727539 rmoveto
          60 callsubr
          165 189 callsubr
          200 callgsubr
          hlineto
          -274 -310 162.02000427246094 3 callgsubr
          221.99000549316406 198.99000549316406 rlineto
          684.0099945068359 -235.99000549316406 -100 callsubr
        </CharString>
        <CharString name="Wdieresis">
          643 214 callsubr
          346 hstem
          526.9900054931641 243 callsubr
          695.9900054931641 193 callsubr
          106 80 -64 callsubr
          104 97 -57 151 callsubr
          88 callgsubr
          -65 -34 callgsubr
          hvcurveto
          523 hmoveto
          118 callsubr
          -104 -83 -80.02000427246094 -101.99000549316406 85 callsubr
          101.00999450683594 hvcurveto
          431 -92 -100 callsubr
        </CharString>
        <CharString name="Wgrave">
          643 -97 callgsubr
          1995.979995727539 92 callsubr
          963.9900054931641 10 callsubr
          686 160 callsubr
          -100 callsubr
        </CharString>
        <CharString name="X">
          46 0 1522.990005493164 hstem
          34 callsubr
          1312.009994506836 vstem
          879.9799957275391 751.9799957275391 rmoveto
          454 770.0099945068359 rlineto
          -336 hlineto
          -220 -402 -73.99000549316406 -136 -313.02000427246094 539.0200042724609 -348 -1 448 -736.0099945068359 -459 -785.9799957275391 rlineto
          332 hlineto
          309 555.9900054931641 74 -131 244 -424.97999572753906 rlineto
          353.02000427246094 hlineto
          -464.02000427246094 751.9799957275391 rlineto
          endchar
        </CharString>
        <CharString name="Y">
          -89 0 -73 callgsubr
          hstem
          84 callsubr
          vstem
          1291 1521.990005493164 -85 callgsubr
          -13 callsubr
          77 callgsubr
        </CharString>
        <CharString name="Yacute">
          -89 0 1979.979995727539 hstem
          84 callsubr
          vstem
          1008.9900054931641 -72 callsubr
          282.00999450683594 -327 -85 callgsubr
          -13 callsubr
          77 callgsubr
        </CharString>
        <CharString name="Ycircumflex">
          -89 0 1958.990005493164 hstem
          84 callsubr
          vstem
          639 1757.979995727539 rmoveto
          60 callsubr
          164.99000549316406 92 -275.99000549316406 119 callgsubr
          652 -235.99000549316406 -85 callgsubr
          -13 callsubr
          77 callgsubr
        </CharString>
        <CharString name="Ydieresis">
          -89 214 callsubr
          346 hstemhm
          199.99000549316406 355 -94.010009765625 318.99000549316406 -55.99000549316406 353.99000549316406 hintmask 00000000
          hintmask 11010000
          368.99000549316406 193 callsubr
          106 80 -64 callsubr
          104 97 -57 151 callsubr
          -17 callsubr
          -65 -82 callgsubr
          hvcurveto
          523 hmoveto
          107 79 -64 callsubr
          104 97 -56 151 callsubr
          -17 callsubr
          -65 100.99000549316406 hvcurveto
          399.00999450683594 -92 -85 callgsubr
          hintmask 10100000
          -13 callsubr
          hintmask 11010000
          77 callgsubr
        </CharString>
        <CharString name="Ygrave">
          -89 0 1979.979995727539 hstem
          84 callsubr
          vstem
          636.9900054931641 7 callgsubr
          -27 0 callgsubr
          -217 150 callsubr
          -65 callsubr
          -19 callgsubr
          654.0099945068359 160 callsubr
          -85 callgsubr
          -13 callsubr
          77 callgsubr
        </CharString>
        <CharString name="Z">
          28 callgsubr
          53.99000549316406 -28 callsubr
          -75 callsubr
        </CharString>
        <CharString name="Zacute">
          28 callgsubr
          534 -83 callsubr
          -480.00999450683594 -1584 -75 callsubr
        </CharString>
        <CharString name="Zcaron">
          28 callgsubr
          299.99000549316406 15 callsubr
          98 callsubr
          hlineto
          11 callgsubr
          rlineto
          -246 -1784 -75 callsubr
        </CharString>
        <CharString name="Zdotaccent">
          -24 0 -73 callsubr
          1049 -19 callsubr
          90.99998474121094 345 hstem
          500.97999572753906 361 vstem
          500.97999572753906 78 callsubr
          -34 callgsubr
          64 callgsubr
          vhcurveto
          -447 -1693 -75 callsubr
        </CharString>
        <CharString name="a">
          -84 callsubr
          hstem
          -82 callgsubr
          322 333.989990234375 145 callgsubr
          606.9900054931641 1161.990005493164 -107 callgsubr
        </CharString>
        <CharString name="aacute">
          -84 callsubr
          hstem
          -82 callgsubr
          322 333.989990234375 145 callgsubr
          1047.979995727539 14 callsubr
          -441 -471 -107 callgsubr
        </CharString>
        <CharString name="abreve">
          -84 callsubr
          135.00999450683594 51 callsubr
          131 callsubr
          -161.010009765625 196 299 -68 callgsubr
          hintmask 11110110
          627 1297 rmoveto
          224.99000549316406 142 callsubr
          -8 hvcurveto
          -193 hlineto
          -29 callgsubr
          -5 -12 -25 callsubr
          150 callgsubr
          hhcurveto
          -157 -8 124 45 -4 hvcurveto
          -196.02000427246094 hlineto
          -211 75 callsubr
          90 callsubr
          180 callsubr
          236.02000427246094 hhcurveto
          -20.009994506835938 -135 24 callgsubr
          hintmask 11111010
          -7 callsubr
          hintmask 11110110
          204 callgsubr
          hintmask 11111010
          -77 callgsubr
          -967 rmoveto
          -89 -68 51 111 85.00999450683594 52 29 47 17.990005493164062 hvcurveto
          22.020004272460938 47 -42 callsubr
          18.990005493164062 75 hhcurveto
          -272 vlineto
          -27 -21 -86 -36 -70 hhcurveto
          endchar
        </CharString>
        <CharString name="acircumflex">
          -84 callsubr
          hstem
          -82 callgsubr
          322 333.989990234375 145 callgsubr
          628.9799957275391 1481.990005493164 rmoveto
          233 -246 161.02000427246094 -14 callgsubr
          -283.02000427246094 46 callsubr
          -373 156 -89 -73 callsubr
          246 rlineto
          -22 -320 -107 callgsubr
        </CharString>
        <CharString name="acute">
          -665 187 callgsubr
          555 vstem
          -27 callgsubr
          1388.990005493164 rmoveto
          149 64 callsubr
          50 callgsubr
          -106 rlinecurve
          endchar
        </CharString>
        <CharString name="acute.cap">
          -678 1542.979995727539 437 hstem
          84.99000549316406 512 vstem
          84.99000549316406 -83 callsubr
          endchar
        </CharString>
        <CharString name="adieresis">
          -84 callsubr
          147.00999450683594 198 callsubr
          131 callsubr
          -215 3 callsubr
          135.99998474121094 3 callsubr
          -284.99000549316406 -68 callgsubr
          hintmask 11110101
          374.99000549316406 1309 rmoveto
          -22 callgsubr
          55 callsubr
          64.99000549316406 -69.97999572753906 101 hvcurveto
          hintmask 11110110
          485.00999450683594 hmoveto
          -8 callgsubr
          -110.02000427246094 97 callgsubr
          111 callsubr
          101.00999450683594 hvcurveto
          hintmask 11111001
          -253 -147 -107 callgsubr
        </CharString>
        <CharString name="ae">
          -22 callsubr
          1753.990005493164 709 -95 callgsubr
        </CharString>
        <CharString name="aeacute">
          -22 callsubr
          1361.979995727539 14 callsubr
          392 -924 -95 callgsubr
        </CharString>
        <CharString name="agrave">
          -84 callsubr
          hstem
          -82 callgsubr
          322 333.989990234375 145 callgsubr
          598 1250.979995727539 170 callgsubr
          137.02000427246094 -117 -56 callsubr
          -141 169 33 callsubr
          86 callgsubr
          68 -145 255 -199 -66 callsubr
          51 callgsubr
          rlinecurve
          86 callsubr
          40 callsubr
          -107 callgsubr
        </CharString>
        <CharString name="amacron">
          -84 callsubr
          257.00999450683594 205.99000549316406 131 callsubr
          -93 148 callsubr
          -164.00001525878906 -68 callgsubr
          hintmask 00000000
          hintmask 11110100
          921.9900054931641 1624.990005493164 rmoveto
          -590.9900054931641 87 callgsubr
          148 callsubr
          -47 callgsubr
          hlineto
          hintmask 11111010
          -315 -463 -107 callgsubr
        </CharString>
        <CharString name="ampersand">
          212 -97 callgsubr
          181.99000549316406 -181.99000549316406 232.97999572753906 1120.000015258789 208.99000549316406 hstemhm
          87.97999572753906 295.00999450683594 -126.989990234375 278.99000549316406 320 257.97999572753906 37.02000427246094 253.99000549316406 hintmask 00000000
          hintmask 10101110
          1267 196 callgsubr
          rmoveto
          -28 callsubr
          83 53 116 164 vvcurveto
          -24 callsubr
          -13 57 201 callgsubr
          29 vhcurveto
          -258 hlineto
          5 -28 19 -59 -93 vvcurveto
          -76 -26.009994506835938 -71.99000549316406 -46 -52 vhcurveto
          -97 195 callgsubr
          -120 145 -69.02000427246094 89 rrcurveto
          hintmask 01101100
          194 100 127 116.97999572753906 251 vvcurveto
          198 -158 166 -256 -268 -174.97999572753906 -140 -238 -170 70.97999572753906 -111 -9 callsubr
          -98 vhcurveto
          hintmask 01110100
          -177 -83 -134 -127 -180 vvcurveto
          -266 217 -148.99000549316406 430 106 112 32.99000549316406 40 90.99000549316406 vhcurveto
          hintmask 10101110
          55 callgsubr
          73.00999450683594 85 -27.970001220703125 121 hhcurveto
          61 49.99000549316406 7 7.9900054931640625 32 hvcurveto
          166.99000549316406 vlineto
          -87.02000427246094 -70 callsubr
          -55.99000549316406 12 -55.99000549316406 32 rrcurveto
          hintmask 01101100
          -567.0099945068359 1124 rmoveto
          113 42 -93 -65 -143 217 callgsubr
          33 callsubr
          132 callsubr
          -62.02000427246094 hvcurveto
          -88 122 -39 50 110 vvcurveto
          101 183 callgsubr
          63 99 vhcurveto
          -12 -1120.009994506836 rmoveto
          hintmask 01110100
          -224.99000549316406 -80 77 122 -66 callsubr
          53.99000549316406 -16 callgsubr
          92.02000427246094 49 hvcurveto
          87 -114.02000427246094 126 -150 195 callgsubr
          -113 rrcurveto
          hintmask 01101100
          -10 -42 4 callgsubr
          -6 -65 hhcurveto
          endchar
        </CharString>
        <CharString name="aogonek">
          -107 23 callgsubr
          295.02000427246094 210.97999572753906 334.99000549316406 176 218.010009765625 237.99000549316406 131 callsubr
          168 245 -79.010009765625 -68 callgsubr
          hintmask 00000000
          hintmask 11110100
          957.9900054931641 -311 rmoveto
          -10 callsubr
          -51 23 65 54 callsubr
          hvcurveto
          -6 86.02000427246094 70.99000549316406 59.99000549316406 90 61 rrcurveto
          hintmask 11111010
          -64 callsubr
          760.9700012207031 hlineto
          331.02000427246094 -146 86 -317.00999450683594 -58 callgsubr
          vhcurveto
          48 callsubr
          -55 callsubr
          97 156.02000427246094 37 -16 callgsubr
          hhcurveto
          193 33 -24 -122 hvcurveto
          -72 vlineto
          -144 -187 -10 -55.99000549316406 -126 hvcurveto
          -123 -55 -76 -92 -138.02000427246094 vvcurveto
          -215 148 -155.97000122070312 223.99000549316406 135 100.99000549316406 55.99000549316406 55.99000549316406 61 vhcurveto
          -8 vlineto
          -51 11 -27 20.990005493164062 -12.979995727539062 vhcurveto
          hintmask 11110100
          -104 -59 -116 -106 9.009994506835938 -148 83 callgsubr
          -12 -41.99000549316406 -44 -8 -39 hhcurveto
          hintmask 11111010
          -377 506 rmoveto
          -89 -68 51 111 85.00999450683594 52 29 47 17.990005493164062 hvcurveto
          22.020004272460938 47 -42 callsubr
          18.990005493164062 75 hhcurveto
          -272 vlineto
          -27 -21 -86 -36 -70 hhcurveto
          endchar
        </CharString>
        <CharString name="approxequal">
          118 220.99000549316406 -7 callgsubr
          -85.00001525878906 242 92.010009765625 -7 callgsubr
          -85.00001525878906 242 hstemhm
          -47 callgsubr
          1036 hintmask 01011000
          -47 callgsubr
          895 rmoveto
          130 -128 rlineto
          47.99000549316406 44 58 58 94 158 86 callsubr
          -158.99000549316406 207 hhcurveto
          hintmask 01101000
          169 134 118.00999450683594 93 28 hvcurveto
          -116 138 rlineto
          -47 -43 -63 -58 -95 -147.99000549316406 173 callgsubr
          -80 -25 hvcurveto
          5 -493.02000427246094 rmoveto
          130 -128 rlineto
          48 -55 callsubr
          58 58 94 158 9.020004272460938 -158.99000549316406 181 callgsubr
          hhcurveto
          hintmask 10011000
          169 134 239 callgsubr
          93 28 hvcurveto
          -116 138.02000427246094 rlineto
          -47 -43 -63 -58 87 callsubr
          -148 173 callgsubr
          -80.02000427246094 133 callsubr
          hvcurveto
          endchar
        </CharString>
        <CharString name="aring">
          -84 callsubr
          151.00999450683594 152 275.989990234375 146 131 callsubr
          -140 183.99000549316406 289.99998474121094 -68 callgsubr
          -285.99998474121094 149 callsubr
          hintmask 1111101100000000
          622 1312.990005493164 rmoveto
          hintmask 1111101010000000
          -23 callgsubr
          166 86 204 1.9900054931640625 204 callsubr
          -167 -176 -76 -204 -3.9900054931640625 hvcurveto
          hintmask 1111101100000000
          -181 -3 126.00999450683594 -46 callsubr
          215 hhcurveto
          hintmask 1111101010000000
          -70 callsubr
          427.99000549316406 rmoveto
          91 -1 68.00999450683594 -52 40 callsubr
          vvcurveto
          -104 -64 -31 -95 153 callsubr
          hintmask 1111110100000000
          -18 -578.9900054931641 -107 callgsubr
        </CharString>
        <CharString name="asciicircum">
          43 489.97999572753906 1040.990005493164 hstem
          152.99000549316406 1067 vstem
          1219.990005493164 489.97999572753906 rmoveto
          -420 1041 rlineto
          -227 hlineto
          -420 -1041 rlineto
          281 hlineto
          252.99000549316406 674 252 -674 rlineto
          281 hlineto
          endchar
        </CharString>
        <CharString name="asciitilde">
          118 648.9900054931641 -7 callgsubr
          -84.99000549316406 -73 callsubr
          hstemhm
          207.99000549316406 1031 hintmask 01100000
          207.99000549316406 829.9900054931641 rmoveto
          75 callgsubr
          -128 rlineto
          48 44 58 58 94 158 86 callsubr
          -159 207 hhcurveto
          hintmask 10100000
          169 134 118 93 161 callgsubr
          hvcurveto
          -116.02000427246094 138 rlineto
          -47 114 callsubr
          -63 -58 -95.00999450683594 -148 -10 callgsubr
          157 -209 hhcurveto
          hintmask 01100000
          -163 -137 -140 -80 -24.990005493164062 hvcurveto
          endchar
        </CharString>
        <CharString name="asterisk">
          18 601.9799957275391 1133.990005493164 hstemhm
          560.9799957275391 214.50999450683594 -203.99998474121094 213.99000549316406 hintmask 10100000
          579.9900054931641 895 rmoveto
          -17 -293.00999450683594 180 callgsubr
          1 -27 293.00999450683594 -5 30.990005493164062 -38 129 -4 22 rlinecurve
          141 -129.99000549316406 233 -162.02000427246094 99 callsubr
          214.02000427246094 -257.97999572753906 122.97999572753906 -183 49 181 55 252.99000549316406 -28 callgsubr
          -111.99000549316406 206 rlineto
          hintmask 11000000
          -242 -166 -23 101 callgsubr
          -94 -100 -16 116 callgsubr
          rlinecurve
          43 184.02000427246094 17 287.99000549316406 rlineto
          -236 hlineto
          161 callsubr
          -293.00999450683594 4 -10 callgsubr
          39 -128 3 -22 rlinecurve
          135 callsubr
          75 callgsubr
          -243 164 -110 -207.99000549316406 257 -128 28 -11 134 -29 20.009994506835938 -35 callsubr
          rlinecurve
          -181 -53 -252 -134.99000549316406 117 -207 rlineto
          hintmask 10100000
          235 166 134.99000549316406 138 114 callsubr
          -185 rlineto
          endchar
        </CharString>
        <CharString name="at">
          898 -468 177 286.00999450683594 200.99000549316406 -200.99000549316406 226.97999572753906 661.0000152587891 196 callsubr
          286.00999450683594 -23 callgsubr
          hstemhm
          133 callgsubr
          211 234.989990234375 243.00999450683594 407.00001525878906 213.5399932861328 366.4499969482422 208.99000549316406 hintmask 1101111110000000
          1268 181.99000549316406 rmoveto
          -121 86 callsubr
          57 -65.97999572753906 123 hhcurveto
          294.00999450683594 304.99000549316406 272.97999572753906 537 483 -338 255 -464 -596.0099945068359 -487 -438.99000549316406 -664 -625.9900054931641 400 -282.00999450683594 482.02000427246094 250 162 66 60 100 hvcurveto
          -43 158.99000549316406 rlineto
          114 callsubr
          -80 -112 -65 -257 hhcurveto
          -333 -357.99000549316406 180 559 570 402 348 452 312 299 -112 -479.00999450683594 -350.99000549316406 -171 -228 -25 callgsubr
          -50.02000427246094 -12.990005493164062 51 181 34 callsubr
          hvcurveto
          34 188 60 295 34 145 -185 -31 rcurveline
          39.02000427246094 -56 3 callgsubr
          16 -86 hhcurveto
          -410.00999450683594 -175 -365 -275 -7 hvcurveto
          hintmask 1011111110000000
          -300.00999450683594 -6 160.02000427246094 -144.97999572753906 133 hhcurveto
          157 119.00999450683594 114.99000549316406 210 callgsubr
          87 hvcurveto
          hintmask 1101111110000000
          -1 -31.009994506835938 1 -23.979995727539062 1 -21.009994506835938 rrcurveto
          hintmask 1011111110000000
          -294.00999450683594 40 rmoveto
          -75 -41 74.02000427246094 239 callsubr
          2 hvcurveto
          195 -70 callsubr
          129 222 185 hhcurveto
          197 callgsubr
          59 -20.009994506835938 -34 25 hvcurveto
          -224.99000549316406 -31 -192 -382.02000427246094 -138 hhcurveto
          endchar
        </CharString>
        <CharString name="atilde">
          -84 callsubr
          181.00999450683594 -38 callgsubr
          -82 callgsubr
          322 333.989990234375 -68 callgsubr
          hintmask 11101010
          459 1475.990005493164 rmoveto
          hintmask 11110010
          115 callsubr
          66 callsubr
          130.99000549316406 44.99000549316406 hvcurveto
          50 callsubr
          179 callgsubr
          159 callgsubr
          hintmask 11101010
          154 callsubr
          -29 callgsubr
          hvcurveto
          130 callgsubr
          59 56 58 hhcurveto
          210 callgsubr
          -314 24 callgsubr
          hintmask 11101110
          -7 callsubr
          hintmask 11101010
          204 callgsubr
          hintmask 11101110
          -77 callgsubr
          -967 rmoveto
          -89 -68 51 111 85.00999450683594 52 29 47 17.990005493164062 hvcurveto
          22.020004272460938 47 -42 callsubr
          18.990005493164062 75 hhcurveto
          -272 vlineto
          -27 -21 -86 -36 -70 hhcurveto
          endchar
        </CharString>
        <CharString name="b">
          10 -23 215.97999572753906 730.010009765625 233 hstem
          -3 callsubr
          438.00999450683594 327 vstem
          791 1155.990005493164 rmoveto
          -169 -95 178 callsubr
          -52.02000427246094 -55 hvcurveto
          8 188 rlineto
          437 -15 callgsubr
          -1596.990005493164 vlineto
          133 callsubr
          34 239 -61.99000549316406 208 -74 callgsubr
        </CharString>
        <CharString name="backslash">
          -466 -363 1962 hstem
          13.979995727539062 816 vstem
          268.97999572753906 1599 rmoveto
          -255 hlineto
          561.0099945068359 -1962 rlineto
          255 hlineto
          -561.0099945068359 1962 rlineto
          endchar
        </CharString>
        <CharString name="bar">
          -465 -187 1967 140 callsubr
          -1967 255 1967 -255 vlineto
          endchar
        </CharString>
        <CharString name="braceleft">
          107 callsubr
          323.99000549316406 269.97999572753906 vstem
          554.9900054931641 886.9900054931641 rmoveto
          24 27 183 callsubr
          34.02000427246094 116 callsubr
          vvcurveto
          571 262 171 vlineto
          11 -86 -117 13 -109 hhcurveto
          -154 202 callgsubr
          217 callgsubr
          -197 hvcurveto
          238 callgsubr
          vlineto
          -75 -155 -42 234 callsubr
          -10.020004272460938 vhcurveto
          -191 vlineto
          100.99000549316406 -10 155 -53 -72.00999450683594 vvcurveto
          -486.99000549316406 vlineto
          -196.97999572753906 183 callgsubr
          217 callgsubr
          154 109 117 11 24 86 vhcurveto
          156 -262 582 vlineto
          41 -13.990005493164062 33 -25 28 vhcurveto
          -29 callgsubr
          49 -85.02000427246094 36 -76.99000549316406 27 76.99000549316406 28 87 35 42 48 rrcurveto
          endchar
        </CharString>
        <CharString name="braceright">
          107 callsubr
          347.99000549316406 269.97999572753906 vstem
          617.9799957275391 1000 rmoveto
          234 callgsubr
          vlineto
          197 202 callgsubr
          74.02000427246094 -154 -109 -117 -13 -11 -86 vhcurveto
          -171 262 -571 vlineto
          114 callsubr
          183 callsubr
          -34.02000427246094 24 -27 vhcurveto
          42 -48 87 -35 77 -28 -77 -27 -85.00999450683594 -36 -29 callgsubr
          -49 rrcurveto
          133 callsubr
          -28 -13.990005493164062 -33 -41 vvcurveto
          -582 -262 -156 vlineto
          -24 86 117 -11 109 hhcurveto
          154 183 callgsubr
          74.02000427246094 196.97999572753906 hvcurveto
          486.99000549316406 vlineto
          -9 callsubr
          155.02000427246094 53 100.99000549316406 10 vhcurveto
          191 vlineto
          234 callsubr
          10.020004272460938 -155.02000427246094 42 75 vvcurveto
          endchar
        </CharString>
        <CharString name="bracketleft">
          175 callsubr
          144.99000549316406 162 callgsubr
          vstem
          145 1485.990005493164 rmoveto
          -1426 vlineto
          -196.97999572753906 35.99000549316406 -54 154 164 67.99000549316406 10 137 callgsubr
          129 vhcurveto
          145 vlineto
          -268 1.9900054931640625 rlineto
          1569.990005493164 268 163 vlineto
          11 -129 178 callsubr
          13 -164 hhcurveto
          -153 -36.99000549316406 -54 -197 hvcurveto
          endchar
        </CharString>
        <CharString name="bracketright">
          175 callsubr
          360.97999572753906 283.00999450683594 vstem
          643.9900054931641 1485.990005493164 rmoveto
          197 -37 54 -153 -163.99000549316406 119 callsubr
          -13 -11 -128.99000549316406 vhcurveto
          -163 267.97999572753906 -1569.990005493164 vlineto
          -267.97999572753906 -69 callsubr
          rlineto
          -145 vlineto
          116 callgsubr
          128.99000549316406 181 callsubr
          -10 163.99000549316406 hhcurveto
          154 36 54 196.97999572753906 hvcurveto
          1426 vlineto
          endchar
        </CharString>
        <CharString name="breve">
          -515 1297.979995727539 218 hstem
          -55 callsubr
          728 vstem
          -55 callsubr
          1684.990005493164 rmoveto
          173 callsubr
          210 callsubr
          146.99000549316406 176 211 75 callsubr
          hvcurveto
          -193 hlineto
          -44 -5 -12 41 callsubr
          4 callsubr
          -195.99000549316406 hlineto
          endchar
        </CharString>
        <CharString name="breve.cap">
          -515 214 callsubr
          65 callsubr
          hstem
          -55 callsubr
          726.9900054931641 vstem
          -55 callsubr
          1960 rmoveto
          203 callsubr
          236 135 143 203 -8 46 callgsubr
          -13 95 48 -4 hvcurveto
          -191 hlineto
          endchar
        </CharString>
        <CharString name="brokenbar">
          -465 -185.99000549316406 1965.990005493164 140 callsubr
          -816 255 816 -255 vlineto
          -1160 vmoveto
          -805.9900054931641 255 805.9900054931641 -255 vlineto
          endchar
        </CharString>
        <CharString name="bullet">
          -425 466.97999572753906 527.9900054931641 hstem
          186.97999572753906 531 vstem
          186.97999572753906 724.9900054931641 rmoveto
          -145 54 callsubr
          111 50 callgsubr
          210 callgsubr
          hhcurveto
          148 124 126.02000427246094 145 -70 callsubr
          hvcurveto
          210 callgsubr
          3 -109.02000427246094 108.99000549316406 -147.99000549316406 hhcurveto
          -147 -127 -123.99000549316406 -146 -3 hvcurveto
          endchar
        </CharString>
        <CharString name="c">
          -26 callsubr
          663.9799957275391 1155.990005493164 rmoveto
          -95 callsubr
          31 callsubr
          endchar
        </CharString>
        <CharString name="cacute">
          -26 callsubr
          503.99000549316406 1388.990005493164 170 callgsubr
          -137 81 callsubr
          101 callsubr
          215 callgsubr
          137 rlinecurve
          -214 -5 callsubr
          198 callgsubr
          -233 rmoveto
          -95 callsubr
          31 callsubr
          endchar
        </CharString>
        <CharString name="caron">
          -496 155 callgsubr
          198.97999572753906 1698.979995727539 76 callgsubr
          -242.02000427246094 -16 callsubr
          rlineto
          endchar
        </CharString>
        <CharString name="caron.cap">
          -561 1575.990005493164 384 hstem
          48.99000549316406 753.9900054931641 vstem
          48.99000549316406 -63 callsubr
          endchar
        </CharString>
        <CharString name="caronvertical">
          -917 1009.9900054931641 697.9900054931641 hstem
          123.99000549316406 239 vstem
          110 1037.990005493164 rmoveto
          133 23 callsubr
          8 -23 rcurveline
          endchar
        </CharString>
        <CharString name="ccaron">
          -26 callsubr
          393.99000549316406 1712.990005493164 rmoveto
          -156 -89 285.97999572753906 94 callsubr
          30 callsubr
          -242 246 rlineto
          269.99000549316406 -557 rmoveto
          -95 callsubr
          31 callsubr
          endchar
        </CharString>
        <CharString name="ccedilla">
          -282 39 callgsubr
          275.00999450683594 135 callgsubr
          666.0000152587891 102 callgsubr
          168 callsubr
          310 126.989990234375 217 vstem
          977 54 callgsubr
          rmoveto
          55 callgsubr
          185 rlineto
          -25 -46 -98 -22 -104 hhcurveto
          -162 -124 114.00999450683594 -16 callsubr
          7 hvcurveto
          229 6 99 callgsubr
          77 131 hhcurveto
          106 64 -15.009994506835938 -29 -27 callgsubr
          hvcurveto
          39.02000427246094 241 rlineto
          31 callsubr
          -386.99000549316406 -182 -264 -336 -291 141 -227 162 callgsubr
          -46 hvcurveto
          11 -29 6 -39 -4 -59 rrcurveto
          -103 -4 -52 -47 -65 hhcurveto
          -31 6 callsubr
          101 callgsubr
          -165 rlineto
          -16 24.990005493164062 97.02000427246094 215 callsubr
          115 71.99000549316406 171 6 hvcurveto
          -70 callsubr
          75 -11 82 -77 callgsubr
          54 110 13.979995727539062 54 callgsubr
          39 55 54 rrcurveto
          endchar
        </CharString>
        <CharString name="ccircumflex">
          -26 callsubr
          -73 callsubr
          203 callgsubr
          232.97999572753906 -246 161 -47 callsubr
          -283.00999450683594 46 callsubr
          237 callsubr
          rlineto
          421.99000549316406 -170 rmoveto
          -95 callsubr
          31 callsubr
          endchar
        </CharString>
        <CharString name="cdotaccent">
          49 callgsubr
          250.97999572753906 666.0000152587891 102 callgsubr
          151.00999450683594 80 callsubr
          -24 callsubr
          310 37.989990234375 379 hintmask 00000000
          hintmask 11111000
          442.97999572753906 25 callsubr
          -29 callsubr
          48 callgsubr
          -78 callsubr
          -104 -95 -45 callsubr
          vhcurveto
          221 -321.99000549316406 rmoveto
          hintmask 11110000
          -95 callsubr
          hintmask 11111000
          31 callsubr
          endchar
        </CharString>
        <CharString name="cedilla">
          -812 39 callgsubr
          hstem
          250.97999572753906 217 vstem
          52.97999572753906 -270.99000549316406 rmoveto
          101 callgsubr
          -165 rlineto
          -16 25 97 215 callsubr
          115 71.99000549316406 171 6 hvcurveto
          4 98 101 callgsubr
          110 -46 42.97999572753906 -49 4.0200042724609375 rcurveline
          -136.99000549316406 -4.0200042724609375 19.990005493164062 -34.970001220703125 17 -43 -6 -87 rlinecurve
          -103 -4 -52 -47 -65 hhcurveto
          -31.009994506835938 6 callsubr
          endchar
        </CharString>
        <CharString name="cent">
          -143 -13 247.99000549316406 666 252.99000549316406 hstemhm
          143.99000549316406 309.97999572753906 112.00999450683594 171.49000549316406 -137.49000549316406 171.49000549316406 hintmask 11101000
          1025.990005493164 54 callgsubr
          rmoveto
          -45 185 rlineto
          -25 -46 -98 -22 -104 hhcurveto
          -162.02000427246094 -123.99000549316406 114.00999450683594 -16 callsubr
          6.9900054931640625 hvcurveto
          229 6 154 77 -28 callgsubr
          hhcurveto
          106 64 -15.009994506835938 -29 55 hvcurveto
          39 241 -33 24 -91.00999450683594 25.990005493164062 -116 6 rlinecurve
          5 223 rlineto
          -170.99000549316406 hlineto
          -6 -230 rlineto
          -307 -47.99000549316406 -146 -243.02000427246094 -299.99000549316406 vvcurveto
          hintmask 11110000
          -291 141 -227 283 -46 vhcurveto
          -4 -208 rlineto
          171.99000549316406 hlineto
          -70 callsubr
          203 rlineto
          hintmask 11101000
          120.02000427246094 11 147 callsubr
          41 60 58 rrcurveto
          endchar
        </CharString>
        <CharString name="circumflex">
          -452 155 callgsubr
          116 callsubr
          203 callgsubr
          154 callgsubr
          -286 237 callsubr
          rlineto
          endchar
        </CharString>
        <CharString name="circumflex.cap">
          -462 1559.979995727539 400.02000427246094 hstem
          48.99000549316406 770 vstem
          48.99000549316406 42 callsubr
          endchar
        </CharString>
        <CharString name="colon">
          -689 -22 120 callsubr
          354 120 callsubr
          hstemhm
          2 callgsubr
          148 callgsubr
          hintmask 00000000
          hintmask 11100000
          2 callgsubr
          930 -48 callgsubr
          -759.0099945068359 vmoveto
          -59 callsubr
          endchar
        </CharString>
        <CharString name="colonmonetary">
          108 -353.99000549316406 2169 -1829.009994506836 281 978.9799957275391 292 hstemhm
          98 374.97999572753906 113.5 116 5.510009765625 117.49000549316406 13.499984741210938 117 6.4900054931640625 117 hintmask 00000000
          hintmask 10010100
          698 1515.990005493164 rmoveto
          -346.00999450683594 -73.02000427246094 -253.99000549316406 -253.99000549316406 -432 vvcurveto
          -372 173 -262 328 -97 vhcurveto
          hintmask 01011010
          -25 -379.97999572753906 rlineto
          117 hlineto
          23 354 116 callsubr
          -7 46 -5 47 -2 rlinecurve
          -22 -339.99000549316406 rlineto
          117 hlineto
          22 339.99000549316406 147 8 101.00999450683594 40 88 callgsubr
          30 rlinecurve
          299.99000549316406 vlineto
          -47 -43 41 callsubr
          -47 -124.00999450683594 201 callgsubr
          65 972.9900054931641 rcurveline
          118 -16 64 -42 23 -17 46 312.02000427246094 rcurveline
          hintmask 00110101
          -53 12.990005493164062 -10 callsubr
          25 -111.99000549316406 137 callgsubr
          18.990005493164062 286 rcurveline
          -117 hlineto
          -18.990005493164062 -278.02000427246094 rlineto
          1 -12 -12 0 -12 hhcurveto
          -34 -34 -69 callsubr
          -3.0200042724609375 -33.02000427246094 hvcurveto
          19.009994506835938 282.00999450683594 rlineto
          -117 hlineto
          hintmask 10010100
          101 callgsubr
          -299 rlineto
          133 callgsubr
          -1245 rmoveto
          4 callgsubr
          6 -44.02000427246094 11 -41 16 rrcurveto
          hintmask 00110100
          62.02000427246094 924 116 callsubr
          11.020004272460938 46 6 49 100 callsubr
          rlinecurve
          hintmask 10010100
          -65 -974.9900054931641 rlineto
          -246.99000549316406 103 rmoveto
          -100 89 -49 140 176 vvcurveto
          -81 callgsubr
          76 136 2 callgsubr
          76 vhcurveto
          -52.97999572753906 -805 rlineto
          endchar
        </CharString>
        <CharString name="comma">
          -637 -505.99000549316406 801.9900054931641 hstem
          279.97999572753906 289.00999450683594 vstem
          175.97999572753906 -381.99000549316406 243 callgsubr
          158 156 callgsubr
          -25 callsubr
          47 vhcurveto
          -222 -136 rlineto
          -87 vlineto
          51.02000427246094 -3 183 callgsubr
          -46 callsubr
          -93 vvcurveto
          -106.99000549316406 -51 -107 -53 -10 callgsubr
          vhcurveto
          endchar
        </CharString>
        <CharString name="copyright">
          763 81.97999572753906 129 264.010009765625 199 580 194.99000549316406 162 callsubr
          2 callgsubr
          hstem
          175.97999572753906 142 286.010009765625 201 callsubr
          936.0200042724609 155 callsubr
          -384 -391 238 callgsubr
          -487 384 -394.02000427246094 486.02000427246094 234 callgsubr
          385 394.02000427246094 487 234 callgsubr
          -385 391 238 callgsubr
          hvcurveto
          -1629 vmoveto
          -419 -309 338 414 413 309 338 419 419 309 -338 -413 -414 -309 -338 -419 hvcurveto
          53 1238 rmoveto
          -322 -175 -215 -284 2 hvcurveto
          -258.99000549316406 1 172 -216 272 hhcurveto
          133 130 51 53 65 hvcurveto
          -48 159 rlineto
          -28.020004272460938 -47 -78.99000549316406 -35.99000549316406 -99 hhcurveto
          -156 -111 213 callsubr
          231.02000427246094 100 callsubr
          hvcurveto
          163 1 106 97 147 hhcurveto
          81 89 -27 -31 235 callgsubr
          hvcurveto
          45.02000427246094 206 rlineto
          23 -41 -96.00999450683594 23.990005493164062 -46 callsubr
          hhcurveto
          endchar
        </CharString>
        <CharString name="currency">
          214 316.97999572753906 219.99000549316406 472.00999450683594 219.99000549316406 hstem
          315.97999572753906 222 454 222 vstem
          1213.990005493164 773 rmoveto
          93.97999572753906 -28 87.02000427246094 -48 73 vhcurveto
          206 181 callgsubr
          -141 147 -213.02000427246094 -213 rlineto
          39 202 callgsubr
          -78.00999450683594 22 -82 hhcurveto
          -81 -77 -22 -39 202 callgsubr
          hvcurveto
          -200 -47 callgsubr
          -139 -25 callgsubr
          192 -197.02000427246094 rlineto
          -48 -73 -29 -88 -95.99000549316406 vvcurveto
          236 callsubr
          29 3 callgsubr
          50 236 callgsubr
          vhcurveto
          -195 -198.99000549316406 141 -144.02000427246094 202 206 rlineto
          -38 65 76 -21 80 hhcurveto
          81 77 22 38.02000427246094 -15 callsubr
          hvcurveto
          203 -206 140 145 -195.02000427246094 199 rlineto
          49 72.99000549316406 29 89 96.00999450683594 vvcurveto
          -448 -236 rmoveto
          -25 callsubr
          -103 110 126.02000427246094 126 103 110 125.00999450683594 62 callsubr
          101 -110 -126 146 callsubr
          -101 -110 41 callsubr
          hvcurveto
          endchar
        </CharString>
        <CharString name="d">
          9 118 callgsubr
          437 61 callsubr
          858.9900054931641 1661.990005493164 rmoveto
          -438 vlineto
          -92 callgsubr
          1677.979995727539 -15 callgsubr
          hlineto
          -437 -1103.009994506836 -91 callsubr
        </CharString>
        <CharString name="dagger">
          -294 1076.490005493164 210.49000549316406 hstemhm
          233 callsubr
          256 -248 -73 callsubr
          hintmask 10100000
          233 callsubr
          1076.979995727539 rmoveto
          16.020004272460938 -877 rlineto
          228 hlineto
          11.990005493164062 877 283.00999450683594 62 callgsubr
          rlineto
          211.99000549316406 vlineto
          hintmask 11000000
          -283.00999450683594 -2 rlineto
          372.02000427246094 -256 -372.02000427246094 vlineto
          -281.99000549316406 2 -1 237 callgsubr
          rlineto
          hintmask 10100000
          283 100 callsubr
          rlineto
          endchar
        </CharString>
        <CharString name="daggerdbl">
          -294 427.49000549316406 211.49000549316406 437.50999450683594 211 hstemhm
          233 callsubr
          255.00999450683594 -247.50999450683594 237.00999450683594 hintmask 00000000
          hintmask 11010000
          233 callsubr
          427.99000549316406 rmoveto
          197 callsubr
          -783.9900054931641 rlineto
          98 callsubr
          hlineto
          21.020004272460938 783.9900054931641 162 callgsubr
          -1 rlineto
          212 vlineto
          hintmask 11100000
          -282.99000549316406 437.99000549316406 hlineto
          284 62 callgsubr
          rlineto
          211.99000549316406 vlineto
          -284 -1 rlineto
          371.02000427246094 -255.02000427246094 -371.02000427246094 vlineto
          -281.99000549316406 1 -1 237 callgsubr
          283 100 callsubr
          rlineto
          -437.99000549316406 -283 -212 vlineto
          hintmask 11010000
          283 1 rlineto
          endchar
        </CharString>
        <CharString name="dcaron">
          317 118 callgsubr
          437 -92 callsubr
          240.00999450683594 239 vstem
          1578.990005493164 1707.990005493164 rmoveto
          194 callsubr
          32 -33 27 125 callgsubr
          -10 41 callsubr
          -13 -61 7.9900054931640625 -23 rcurveline
          133.02000427246094 -28 rlineto
          52 60 68 60 callgsubr
          -720 -484 rmoveto
          -92 callgsubr
          1677.979995727539 -15 callgsubr
          -438 hlineto
          -437 -665 -91 callsubr
        </CharString>
        <CharString name="dcroat">
          9 12 callsubr
          136.989990234375 179.99000549316406 168 callsubr
          327 437 61 callsubr
          1298.979995727539 1472.979995727539 rmoveto
          -128 189 -15 callgsubr
          -189 -227 -180 227 -69 hlineto
          -92 callgsubr
          1308.9700012207031 128 180 hlineto
          -876.9900054931641 -914 -91 callsubr
        </CharString>
        <CharString name="degree">
          -373 920.9799957275391 176 361.010009765625 176 hstem
          239 callgsubr
          188 345 186.97999572753906 vstem
          477.97999572753906 1634 rmoveto
          87 callgsubr
          -154 -152 -204 -200 160 -157 199.99000549316406 207 152.99000549316406 151 206 199.99000549316406 -158.99000549316406 156.02000427246094 -201 hvcurveto
          -537 vmoveto
          87 callsubr
          -77 -65 callsubr
          -34 callgsubr
          104 74 76 98 96.00999450683594 77 -78.00999450683594 -76 callsubr
          -104 -75 -77 55 callsubr
          hvcurveto
          endchar
        </CharString>
        <CharString name="dieresis">
          -356 1309.979995727539 353.00999450683594 hstem
          42 callgsubr
          3 callsubr
          136.00999450683594 3 callsubr
          vstem
          42 callgsubr
          1477.979995727539 rmoveto
          -98 65 -70 101.00999450683594 104 -65 callsubr
          83 151 callgsubr
          230 callgsubr
          -83 -85.02000427246094 -100 vhcurveto
          485 hmoveto
          -98 65 -70 101 104 -65 callsubr
          83 -34 callgsubr
          -61 callsubr
          -54 -9 callsubr
          -110 145 callsubr
          -85.02000427246094 -100 vhcurveto
          endchar
        </CharString>
        <CharString name="dieresis.cap">
          -342 214 callsubr
          346 hstem
          -27 callgsubr
          243 callsubr
          -27 callgsubr
          29 callgsubr
          524 hmoveto
          85 callsubr
          101 41 callgsubr
          78.99000549316406 103 callgsubr
          endchar
        </CharString>
        <CharString name="divide">
          73 136.99000549316406 393.99000549316406 124.00999450683594 234 135.989990234375 394.00999450683594 hstemhm
          522.9900054931641 148 callgsubr
          hintmask 00000000
          hintmask 11110000
          526.9900054931641 1212.990005493164 rmoveto
          -109 78 100 callgsubr
          147 callsubr
          113.00999450683594 90.99000549316406 94 113 147 callsubr
          -49 callsubr
          81 callsubr
          -117 -111 -94 -95 -111 vhcurveto
          -324 -323.99000549316406 rmoveto
          -234 996.9900054931641 234 -996.9900054931641 vlineto
          320 -564 rmoveto
          -109.02000427246094 77.99000549316406 -78.99000549316406 107 -42 callsubr
          213 callgsubr
          94 -42 callsubr
          106 -10 callsubr
          81 -116 -111 87 callsubr
          87 callsubr
          -111 vhcurveto
          endchar
        </CharString>
        <CharString name="dollar">
          80 -14 246.99000549316406 1066.989990234375 -38 callsubr
          hstemhm
          195 callsubr
          -68 callgsubr
          32.970001220703125 183.52000427246094 235 callsubr
          183.5 93.02999877929688 320 hintmask 11101100
          1216 182 callgsubr
          rmoveto
          247 -179.02000427246094 109 -239 126.00999450683594 vhcurveto
          -185 98 134 callgsubr
          47 109 vvcurveto
          94 58.99000549316406 61.99000549316406 169 152 106 127 callgsubr
          74 vhcurveto
          52 246.99000549316406 4 callgsubr
          32 -128 48 -169 6.9900054931640625 rlinecurve
          6 226 rlineto
          -183 hlineto
          201 callgsubr
          -233.97999572753906 rlineto
          -223 -33.02000427246094 -170 -117.99000549316406 -250 vvcurveto
          -249.02000427246094 198 -134.99000549316406 180 -89 vhcurveto
          234 -116 61 -44 -106.99000549316406 vvcurveto
          -69 callgsubr
          -54 -53 -169 -163 -144 49 47 -85.00999450683594 vhcurveto
          -45 -255 rlineto
          hintmask 11110100
          45 -28 136 -40.02000427246094 99 callgsubr
          -15.970001220703125 -6 -215 rcurveline
          184 hlineto
          5 210.99000549316406 rlineto
          hintmask 11101100
          212 callgsubr
          19 185.02000427246094 146.99000549316406 256 vvcurveto
          endchar
        </CharString>
        <CharString name="dong">
          44 0 196 callsubr
          93.989990234375 229 509.010009765625 98 callsubr
          105.00999450683594 167.99000549316406 hstem
          150.99000549316406 -58 callsubr
          348.99998474121094 327 vstem
          500.97999572753906 1520.990005493164 rmoveto
          -168 328 vlineto
          3.0200042724609375 -121 rlineto
          7.9900054931640625 -35 -53 8 217 callgsubr
          hhcurveto
          -319 -199.99000549316406 -189 -322.99000549316406 -303 190 -142 221 180 80 69.02000427246094 41 43 hvcurveto
          -70 vlineto
          -8 0 -32.02000427246094 23 vhcurveto
          268 1062.020004272461 182 168 -182 173 -327 -173 -328 hlineto
          328 -942 rmoveto
          -18 -26.009994506835938 -46 -41 132 callsubr
          hhcurveto
          -83 -75 63 159 170 45 117 155.02000427246094 104 30.990005493164062 -23 -13 14 hvcurveto
          -414 vlineto
          -694 -382 rmoveto
          -197 1105 197 -1105 vlineto
          endchar
        </CharString>
        <CharString name="dotaccent">
          -841 1306.990005493164 89 callsubr
          hstem
          -27 callgsubr
          379 vstem
          -27 callgsubr
          25 callsubr
          231 callgsubr
          106 92 -78 callsubr
          -104 -95.00999450683594 -45 callsubr
          vhcurveto
          endchar
        </CharString>
        <CharString name="dotaccent.cap">
          -841 214 callsubr
          345 hstem
          64 360.97999572753906 vstem
          64 113 callgsubr
          -100 42 callgsubr
          -64 -34 callgsubr
          106 8 callgsubr
          17 callgsubr
          66 -111 -104 218 callsubr
          endchar
        </CharString>
        <CharString name="dotlessi">
          0 1139.990005493164 -56 callgsubr
          vstem
          174 1140 -66 callgsubr
          endchar
        </CharString>
        <CharString name="e">
          -79 callsubr
          -40 callsubr
          1093 709 -107 callsubr
        </CharString>
        <CharString name="eacute">
          -79 callsubr
          -40 callsubr
          1055.990005493164 -26 callgsubr
          37 -925 -107 callsubr
        </CharString>
        <CharString name="ebreve">
          -79 callsubr
          141.989990234375 218 -40 callsubr
          634.9799957275391 1297.979995727539 rmoveto
          210 callsubr
          146.99000549316406 176 211 75 callsubr
          hvcurveto
          -193 hlineto
          -44 -5 -12 41 callsubr
          4 callsubr
          -195.99000549316406 hlineto
          173 callsubr
          458.02000427246094 -588.9900054931641 -107 callsubr
        </CharString>
        <CharString name="ecaron">
          -79 callsubr
          -40 callsubr
          744 172 callsubr
          30 callsubr
          -242.02000427246094 129 callgsubr
          349 -541.9799957275391 -107 callsubr
        </CharString>
        <CharString name="ecircumflex">
          -79 callsubr
          -40 callsubr
          636.9900054931641 1483 rmoveto
          233 -246 199 callgsubr
          -47 callsubr
          -282.99000549316406 208 callgsubr
          237 callsubr
          156.02000427246094 -89 -73 callsubr
          246 rlineto
          456.00999450683594 -774 -107 callsubr
        </CharString>
        <CharString name="edieresis">
          -79 callsubr
          153.989990234375 353.00999450683594 hstemhm
          -24 callsubr
          318.00999450683594 -196.00999450683594 3 callsubr
          136.00999450683594 3 callsubr
          -248.010009765625 290.02000427246094 hintmask 00000000
          hintmask 11110110
          383 1309.979995727539 rmoveto
          104 79 83 91 callgsubr
          -83 -85.02000427246094 137 callsubr
          83 -34 callgsubr
          -61 callsubr
          -54 -9 callsubr
          -110 145 callsubr
          -85.02000427246094 -100 -98 65 -70 100.99000549316406 hvcurveto
          hintmask 11111001
          210 callsubr
          -600.9900054931641 -107 callsubr
        </CharString>
        <CharString name="edotaccent">
          -79 callsubr
          206 callgsubr
          -24 callsubr
          318.00999450683594 26.990005493164062 379 -16.020004272460938 290.02000427246094 hintmask 00000000
          hintmask 11111100
          620.9900054931641 168 callgsubr
          106 92 -78 callsubr
          -104 -95 -45 callsubr
          184 callsubr
          hvcurveto
          hintmask 11111010
          472 -598 -107 callsubr
        </CharString>
        <CharString name="egrave">
          -79 callsubr
          -40 callsubr
          605.9799957275391 1251.979995727539 rmoveto
          149.02000427246094 137 -117 108 -141 169 122 callgsubr
          -38 rlinecurve
          487.02000427246094 -542.9900054931641 -107 callsubr
        </CharString>
        <CharString name="eight">
          26 -97 callgsubr
          219.97999572753906 1151.000015258789 210 hstemhm
          128.97999572753906 295.00999450683594 -243.99998474121094 287.97999572753906 427.02000427246094 212 callgsubr
          -247.99000549316406 310.97999572753906 hintmask 11010100
          1234.979995727539 409.99000549316406 rmoveto
          -69 callsubr
          193 -157 116 -172 54 callgsubr
          rrcurveto
          hintmask 11011000
          184.02000427246094 89.00999450683594 -28 callsubr
          168 139 vvcurveto
          209 -182 144.02000427246094 -308 -309 -192.99000549316406 -159 -232 -188 104 -118 -28 callgsubr
          40 callsubr
          vhcurveto
          hintmask 11100100
          -208 -108.00999450683594 -78.00999450683594 -147.99000549316406 -138.02000427246094 vvcurveto
          -268 240 -132.97000122070312 323.00999450683594 vhcurveto
          hintmask 11010100
          304.99000549316406 241 146.97999572753906 279 -3.0200042724609375 hvcurveto
          -556.9900054931641 945.0099945068359 rmoveto
          hintmask 11011000
          137.99000549316406 214 callgsubr
          -72 -96.02000427246094 hvcurveto
          4 182 callsubr
          -57 -107 -127 -52 rrcurveto
          -137 77 -110 -29 callsubr
          116.99000549316406 vvcurveto
          hintmask 11010100
          98.02000427246094 94 64 116 vhcurveto
          183 callsubr
          -1151.020004272461 rmoveto
          hintmask 11100100
          -191 134 callgsubr
          89 110 127 72.99000549316406 85.00999450683594 106 56 hvcurveto
          167 -86 154 -64 callgsubr
          -134 vvcurveto
          hintmask 11010100
          -111 -109.02000427246094 -63.02000427246094 -122 vhcurveto
          endchar
        </CharString>
        <CharString name="ellipsis">
          573 -22 120 callsubr
          hstemhm
          2 callgsubr
          148 callgsubr
          241.99998474121094 389.02000427246094 -73 callsubr
          148 callgsubr
          hintmask 00000000
          hintmask 11110000
          2 callgsubr
          133 callgsubr
          rmoveto
          -59 callsubr
          630.9900054931641 hmoveto
          -110 1 -29 callsubr
          63 callgsubr
          147 callsubr
          hhcurveto
          113.00999450683594 91 97.97999572753906 -24 callgsubr
          170 callsubr
          -56 callsubr
          -1 119 callsubr
          -66 callsubr
          -116 hhcurveto
          -111.99000549316406 -93 221 callgsubr
          100 callsubr
          hvcurveto
          631.0099945068359 hmoveto
          -110 1 79 63 callgsubr
          107 hhcurveto
          -42 callsubr
          -33 callsubr
          97.97999572753906 -24 callgsubr
          209 callgsubr
          178 callsubr
          -66 callsubr
          -116 hhcurveto
          -112 -93 221 callgsubr
          1 hvcurveto
          endchar
        </CharString>
        <CharString name="emacron">
          -79 callsubr
          263.989990234375 206 hstemhm
          -24 callsubr
          318.00999450683594 217 callgsubr
          149 callgsubr
          -127.01998901367188 290.02000427246094 hintmask 00000000
          hintmask 11110100
          930 1625.990005493164 rmoveto
          -591.0200042724609 -206 591.0200042724609 206 hlineto
          hintmask 11111010
          163 -916.9900054931641 -107 callsubr
        </CharString>
        <CharString name="emdash">
          1083 643.9900054931641 245 hstem
          135 callgsubr
          1923.009994506836 223 callsubr
          1923.009994506836 245 -1923.009994506836 vlineto
          endchar
        </CharString>
        <CharString name="endash">
          372 643.9900054931641 245 hstem
          135 callgsubr
          1212 223 callsubr
          1212 245 -1212 vlineto
          endchar
        </CharString>
        <CharString name="eng">
          22 -507 199 1212.990005493164 253.99000549316406 53 callsubr
          174 1137.990005493164 rmoveto
          -1137.990005493164 312 814 vlineto
          69 -16 callgsubr
          101 29 56 1 rrcurveto
          130 3.9900054931640625 36 -65 -186 vvcurveto
          -702.9700012207031 vlineto
          -230.02000427246094 -39.02000427246094 -32.99000549316406 3 callgsubr
          -24 -63 3.9900054931640625 7 -21.020004272460938 vhcurveto
          -195.99000549316406 144 callsubr
          38 94 -6 88 callgsubr
          hhcurveto
          195 155 131 344.99000549316406 hvcurveto
          746.9900054931641 vlineto
          -1 334 -113.99000549316406 117 -241 -35 callsubr
          -140 -3.9900054931640625 8 callsubr
          -79 -77 -58 -6 120 rcurveline
          -283 hlineto
          endchar
        </CharString>
        <CharString name="eogonek">
          -140 23 callgsubr
          295.02000427246094 231.97999572753906 278.99000549316406 173.00999450683594 266.00001525878906 222 hstemhm
          -24 callsubr
          318.00999450683594 168.97999572753906 245 -24.009994506835938 290.02000427246094 hintmask 11111010
          1093 709 rmoveto
          -4.0200042724609375 332 -212.99000549316406 116.99000549316406 -235.99000549316406 146 callgsubr
          -350 -2 -195 -248 -332 vvcurveto
          -370.00999450683594 190 -219.97000122070312 348 vhcurveto
          hintmask 11111100
          38.99000549316406 39 -70 callsubr
          4.0099945068359375 38 hvcurveto
          -94 -63.02000427246094 -81 182 callsubr
          7.9900054931640625 -136 220 callgsubr
          -64 callgsubr
          126.02000427246094 -13 callgsubr
          -12 -42 -29 callgsubr
          225 callsubr
          -3 hvcurveto
          139 131 108.99000549316406 88 65 vhcurveto
          -1 hlineto
          4 3 4.0099945068359375 1.9900054931640625 -70 callsubr
          3 -51 -23 callgsubr
          rcurveline
          -32.99000549316406 -60 -152 -26.009994506835938 -81 hhcurveto
          -175 -117 85.00999450683594 193.99000549316406 -12 hvcurveto
          hintmask 11111010
          674.0200042724609 hlineto
          7.9900054931640625 51.02000427246094 3 76.99000549316406 86.02000427246094 vvcurveto
          -290.02000427246094 -41 rmoveto
          -389.97999572753906 hlineto
          203 22 80 63 115 hhcurveto
          140 43 -99 -167 -10.020004272460938 hvcurveto
          endchar
        </CharString>
        <CharString name="equal">
          141 callgsubr
          250.97999572753906 1139 rmoveto
          -216 921 216 -921 vlineto
          -512 vmoveto
          -216 921 216 -921 vlineto
          endchar
        </CharString>
        <CharString name="estimated">
          53 -97 callgsubr
          162.97999572753906 464.99000549316406 156.00999450683594 424.99000549316406 163 hstem
          108.99000549316406 326 535 304 vstem
          1262.979995727539 611.9799957275391 rmoveto
          11.020004272460938 51.02000427246094 0 8 callgsubr
          86.02000427246094 vvcurveto
          -11.020004272460938 -58 callsubr
          -232 200 -295 -5.0200042724609375 rrcurveto
          -426 201 callgsubr
          -201 -286 -392 vvcurveto
          -430 225 -256.97999572753906 398.00999450683594 193.99000549316406 187 42 callgsubr
          61 85.00999450683594 vhcurveto
          -70 151 rlineto
          -55 236 callgsubr
          -140 -64 -164.99000549316406 hhcurveto
          146 callsubr
          -111 30 81 134 callgsubr
          hvcurveto
          354 827.9900054931641 vlineto
          -541 581 rmoveto
          118 -64 callsubr
          -28 -46 52 hvcurveto
          -350.99000549316406 -535 308.97999572753906 vlineto
          82 197 callgsubr
          -82 callgsubr
          34 111 hhcurveto
          endchar
        </CharString>
        <CharString name="eth">
          -36 2 callsubr
          211 callsubr
          729.9799957275391 217 168 callsubr
          323.99000549316406 472.99998474121094 323.00999450683594 vstem
          703 1594.979995727539 rmoveto
          58 70 65 87 0 vvcurveto
          -152 100 rlineto
          0 -69 -98 -56 -74 vhcurveto
          -80 44 -84.00999450683594 30 -111.99000549316406 33 -53 180 callsubr
          rcurveline
          70.97999572753906 -21.009994506835938 69.02000427246094 -10 callgsubr
          64 -39.02000427246094 -122 -157.99000549316406 rcurveline
          149 -99 117 157.99000549316406 115 callsubr
          -81.99000549316406 92 -117 42 -124 rlinecurve
          31 4 callgsubr
          -64 20.990005493164062 -78.00999450683594 hhcurveto
          -338 -191 -235.99000549316406 -363 -344 218 -234.97999572753906 340.99000549316406 2 hvcurveto
          312 1.9900054931640625 249.02000427246094 211 callsubr
          447.02000427246094 vvcurveto
          390.99000549316406 -200 376.00999450683594 -15 callgsubr
          -23 callgsubr
          vhcurveto
          -43 -1392.990005493164 rmoveto
          -148.99000549316406 74 callsubr
          117 227.97999572753906 245 -33 callsubr
          140 150 114 81.02000427246094 -63 -53 30.990005493164062 hvcurveto
          5 -63 1 -105 -74 vvcurveto
          -240 -76 callsubr
          -132 -130 vhcurveto
          endchar
        </CharString>
        <CharString name="exclam">
          -689 -22 120 callsubr
          -404.99000549316406 1801.990005493164 hstemhm
          173.99000549316406 306.99000549316406 hintmask 01100000
          151 1780 rmoveto
          46 96 callgsubr
          -347 hlineto
          hintmask 10100000
          -25 -2 callsubr
          endchar
        </CharString>
        <CharString name="exclamdbl">
          -60 -22 120 callsubr
          hstem
          173.99000549316406 306.99000549316406 321.989990234375 307.02000427246094 vstem
          151 1780 rmoveto
          46 96 callgsubr
          -347 hlineto
          628.9900054931641 hmoveto
          46.02000427246094 96 callgsubr
          -347.00999450683594 hlineto
          -653.9900054931641 -2 callsubr
          629 hmoveto
          -110 1 77.99000549316406 63 callgsubr
          107 hhcurveto
          114 -14 callgsubr
          97.97999572753906 -24 callgsubr
          -1 hvcurveto
          -56 callsubr
          -1 178 callsubr
          -66 callsubr
          -117 hhcurveto
          -111 -94 221 callgsubr
          2 hvcurveto
          endchar
        </CharString>
        <CharString name="exclamdown">
          -689 -435.99000549316406 1801.990005493164 -405.02000427246094 405.00999450683594 hstemhm
          116 148 callgsubr
          -355 306.99000549316406 hintmask 00000000
          hintmask 01100000
          505 1172.990005493164 rmoveto
          110 -1 -78.00999450683594 83 -106.99000549316406 hhcurveto
          -114.02000427246094 3 callgsubr
          -98 -115.02000427246094 1 hvcurveto
          182 callsubr
          100 callsubr
          181 callsubr
          -84.00999450683594 117 hhcurveto
          111 93.99000549316406 99 113.00999450683594 170 callsubr
          hintmask 10010000
          133 callsubr
          -1608.990005493164 rmoveto
          -46 1224.990005493164 rlineto
          -267 hlineto
          -34 -1224.990005493164 rlineto
          346.99000549316406 hlineto
          endchar
        </CharString>
        <CharString name="f">
          -472 923.9900054931641 216 322.989990234375 219.99000549316406 hstem
          236.99000549316406 -44 callsubr
          endchar
        </CharString>
        <CharString name="f_f">
          386 21 callgsubr
          545.9999847412109 312.00999450683594 vstem
          -96 callgsubr
          endchar
        </CharString>
        <CharString name="f_f_i">
          1046 -12 callsubr
          85 callgsubr
          545.9999847412109 -68 callgsubr
          444.99000549316406 379 -340.989990234375 -92 callsubr
          hintmask 10111010
          -96 callgsubr
          hintmask 11011100
          757 553 -90 callgsubr
          hintmask 10111010
          38 -337 rmoveto
          -1140 -92 callsubr
          1140 -15 callgsubr
          vlineto
          endchar
        </CharString>
        <CharString name="f_f_l">
          1058 21 callgsubr
          545.9999847412109 -68 callgsubr
          489.00001525878906 311.99000549316406 vstem
          -96 callgsubr
          801.0200042724609 738 rmoveto
          241 callsubr
          1661.990005493164 -15 callgsubr
          vlineto
          endchar
        </CharString>
        <CharString name="ffi_dflt">
          1046 -12 callsubr
          90 callsubr
          379 -341 -92 callsubr
          410.99998474121094 -68 callgsubr
          546.0000152587891 -92 callsubr
          hintmask 10101110
          -50 callgsubr
          858.0099945068359 hmoveto
          -924 -92 callsubr
          924 266.02000427246094 216 -266.02000427246094 116 vlineto
          138 65 69 95.00999450683594 77.99000549316406 47 -8.990005493164062 -15.009994506835938 31.009994506835938 -36 callsubr
          -197 -229 -100 -333.99000549316406 hvcurveto
          -109 vlineto
          -154.99000549316406 -34.02000427246094 rlineto
          -181.99000549316406 154.99000549316406 vlineto
          hintmask 11010110
          -1619 553 -90 callgsubr
          hintmask 10101110
          38 -337 -66 callgsubr
          endchar
        </CharString>
        <CharString name="fi">
          188 -12 callsubr
          85 callgsubr
          445.00999450683594 379 -341.010009765625 -68 callgsubr
          hintmask 10110100
          -38 callsubr
          924 -100 callgsubr
          hintmask 11011000
          757 553 rmoveto
          -100 47 callgsubr
          -40 callgsubr
          -111 -104 109 callgsubr
          vhcurveto
          hintmask 10110100
          37.99000549316406 -337 rmoveto
          -1140 312.02000427246094 1140 -312.02000427246094 vlineto
          endchar
        </CharString>
        <CharString name="fi_trk">
          188 -12 callsubr
          90 callsubr
          379 -341 -92 callsubr
          410.99998474121094 -68 callgsubr
          hintmask 10101100
          -50 callgsubr
          hintmask 11010100
          -761 553 -90 callgsubr
          hintmask 10101100
          38 -337 -66 callgsubr
          endchar
        </CharString>
        <CharString name="five">
          -37 -353.99000549316406 211 callsubr
          575.9900054931641 234 299.989990234375 266.99000549316406 hstem
          832 318.99000549316406 vstem
          192 -340.99000549316406 rmoveto
          -11.020004272460938 37.99000549316406 -16 callgsubr
          -69 callsubr
          36 hhcurveto
          505.02000427246094 -70 callsubr
          319 262 333.99000549316406 vvcurveto
          266.02000427246094 -161.02000427246094 174 -280 134 callgsubr
          -76 -13 -22 -98 vhcurveto
          33 335 rlineto
          593 hlineto
          28 267 rlineto
          -846.9900054931641 hlineto
          -66.00999450683594 -837 50.02000427246094 -30 rlineto
          35 147 callsubr
          105 31.009994506835938 85.02000427246094 hhcurveto
          209 -1 77 -71 -145 vvcurveto
          -214 -230.02000427246094 -144.99000549316406 -330 -26 -77 callgsubr
          1 1 -27.020004272460938 vhcurveto
          -0.9799957275390625 -217.99000549316406 rlineto
          endchar
        </CharString>
        <CharString name="fl">
          200 21 callgsubr
          488.99998474121094 -44 callsubr
          801 738 166 callgsubr
        </CharString>
        <CharString name="florin">
          -151 923.9900054931641 216 316.989990234375 227 hstemhm
          207.99000549316406 888.9900054931641 -691.5000152587891 314.50999450683594 hintmask 11100000
          384 924 rmoveto
          -111 -1280 rlineto
          314 hlineto
          110 1280 rlineto
          274.97999572753906 hlineto
          17.020004272460938 216 rlineto
          hintmask 11010000
          -274 hlineto
          10 213 callsubr
          rlineto
          164 17 77 64 195 callgsubr
          hhcurveto
          81 54 -8.990005493164062 116 callgsubr
          22 hvcurveto
          18 229 rlineto
          86 callsubr
          -20.009994506835938 -74 12 3 callgsubr
          hhcurveto
          -235 -232 50 callgsubr
          -348 -36 hvcurveto
          -8.990005493164062 33 callsubr
          -179.02000427246094 -38 -13.990005493164062 -177.99000549316406 rlineto
          hintmask 11100000
          176 hlineto
          endchar
        </CharString>
        <CharString name="four">
          82 0 201 callsubr
          hstem
          827.9799957275391 300.00999450683594 vstem
          1361 201 callsubr
          rmoveto
          -233 410.00999450683594 -262 hlineto
          -38 -410.00999450683594 rlineto
          -388 hlineto
          76 127 461 850 -244 123 rlineto
          236 callgsubr
          hlineto
          -560 -1200.990005493164 76 -133 rlineto
          652 -375.99000549316406 300.00999450683594 375.99000549316406 233 201 callsubr
          hlineto
          endchar
        </CharString>
        <CharString name="four.numr">
          -34 callsubr
        </CharString>
        <CharString name="fraction">
          -294 0 1529.990005493164 hstem
          127 781.9799957275391 vstem
          127 hmoveto
          239.99000549316406 hlineto
          542 1530 rlineto
          -243 hlineto
          -538.9900054931641 -1530 rlineto
          endchar
        </CharString>
        <CharString name="franc">
          -64 179 callsubr
          220.99000549316406 157.99998474121094 265.99000549316406 391.00999450683594 269 hstem
          224.99000549316406 359.99000549316406 vstem
          -27 callgsubr
          437.99000549316406 rmoveto
          -221 170 136 callgsubr
          360 179 callsubr
          270 221 -270 158 450 266 -450 391 578.9900054931641 269 -938.9900054931641 -1084 -170 vlineto
          endchar
        </CharString>
        <CharString name="g">
          -88 callsubr
          -61 callgsubr
          354.00999450683594 -11 callsubr
          hintmask 1111001010000000
          1287.990005493164 1140 -103 callgsubr
        </CharString>
        <CharString name="gbreve">
          -88 callsubr
          141.989990234375 218 -61 callgsubr
          354.00999450683594 -11 callsubr
          hintmask 1111010101000000
          634 1297.979995727539 rmoveto
          225 147 176 211 -8 hvcurveto
          -193 hlineto
          -44 -5 -12 41 callsubr
          4 callsubr
          -196 hlineto
          -211 -8 136 -176 236 hhcurveto
          653.9900054931641 -157.99000549316406 -3 callgsubr
          hintmask 1110110101000000
          -90 callsubr
          hintmask 1111010011000000
          -84 callgsubr
          hintmask 1111011000100000
          -93 callgsubr
          hintmask 1111010011000000
          -94 callsubr
          hintmask 1111010101000000
          226.02000427246094 vlineto
          -671 -540.0200042724609 rmoveto
          -127 -49 callsubr
          69.02000427246094 110 hvcurveto
          hintmask 1110110101000000
          145 92 39 116 128 65 -65 -123 vhcurveto
          hintmask 1111010101000000
          -142.99000549316406 -92 -32 -115.02000427246094 vhcurveto
          51.02000427246094 -599.9799957275391 rmoveto
          hintmask 1111011000100000
          -98 callsubr
          hintmask 1111010101000000
          163 hlineto
          endchar
        </CharString>
        <CharString name="gcaron">
          -88 callsubr
          -61 callgsubr
          354.00999450683594 -11 callsubr
          hintmask 1111001010000000
          742.9900054931641 172 callsubr
          30 callsubr
          -242 129 callgsubr
          545 216 callsubr
          -103 callgsubr
        </CharString>
        <CharString name="gcircumflex">
          -88 callsubr
          -61 callgsubr
          354.00999450683594 -11 callsubr
          hintmask 1111001010000000
          635.9900054931641 1483 rmoveto
          154 callgsubr
          -285.97999572753906 237 callsubr
          191 callgsubr
          rlineto
          652 -343 -103 callgsubr
        </CharString>
        <CharString name="gcommaaccent">
          -88 callsubr
          -61 callgsubr
          -20.000015258789062 257 117.010009765625 -11 callsubr
          hintmask 0000000000000000
          hintmask 1111001011000000
          652.9799957275391 1287.990005493164 rmoveto
          139 121 rlineto
          69 vlineto
          -51 10.009994506835938 -34 79 62 vvcurveto
          8 callgsubr
          24 35 29 35 vhcurveto
          23 vlineto
          -118 51.02000427246094 rlineto
          -76 -22.020004272460938 -116 -121 -164 vvcurveto
          -151 103 -99 100 -11 vhcurveto
          635 -147.99000549316406 -3 callgsubr
          hintmask 1110101001000000
          -90 callsubr
          hintmask 1111000101000000
          -84 callgsubr
          hintmask 1111010000100000
          -93 callgsubr
          hintmask 1111000101000000
          -94 callsubr
          hintmask 1111001011000000
          226.02000427246094 vlineto
          hintmask 1110101001000000
          -671 -540.0200042724609 rmoveto
          -127 -49 callsubr
          69.02000427246094 110 145 92 39 116 128 65 -65 -123 -142.99000549316406 -92 -32 -115.02000427246094 hvcurveto
          51.02000427246094 -599.9799957275391 rmoveto
          hintmask 1111010000100000
          -98 callsubr
          hintmask 1110101001000000
          163 hlineto
          endchar
        </CharString>
        <CharString name="gdotaccent">
          -88 callsubr
          151 357.99000549316406 -61 callgsubr
          -31.000015258789062 379 6.010009765625 -11 callsubr
          hintmask 0000000000000000
          hintmask 1111010101000000
          619.9900054931641 168 callgsubr
          106 92 -78 callsubr
          -104 -95.00999450683594 -45 callsubr
          -9 callgsubr
          231 callgsubr
          hvcurveto
          668 -167 -3 callgsubr
          hintmask 1110110100100000
          -90 callsubr
          hintmask 1111010010100000
          -84 callgsubr
          hintmask 1111011000010000
          -93 callgsubr
          hintmask 1111010010100000
          -94 callsubr
          hintmask 1111010101000000
          -65 callgsubr
        </CharString>
        <CharString name="germandbls">
          65 -97 callgsubr
          196 callgsubr
          1174.990005493164 181 callgsubr
          hstemhm
          192.97999572753906 317 219 269 -77 324.00999450683594 -220.00999450683594 317 hintmask 11110000
          997.9900054931641 889 rmoveto
          hintmask 11101000
          122 247 25.990005493164062 231.02000427246094 vvcurveto
          -81 callgsubr
          -171 123 -270.00999450683594 -287.99000549316406 -242 -126 -305 -64 vhcurveto
          -156 -29 rlineto
          -194.99000549316406 139 -924 317.00999450683594 950.9900054931641 vlineto
          319 98 -34 callgsubr
          151 104 58 -53 -97.00999450683594 vhcurveto
          hintmask 11110000
          -163.99000549316406 -192 -33.02000427246094 -187.99000549316406 vvcurveto
          hintmask 11110100
          -269 295.02000427246094 -40 0.9799957275390625 -204 vhcurveto
          -99 -97 -28 -49 callsubr
          -86.02000427246094 -69 26.990005493164062 16 -77 callgsubr
          vhcurveto
          -222.99000549316406 vlineto
          -17 33 90.99000549316406 -97 callgsubr
          112 hhcurveto
          213 213 79.99000549316406 274.97999572753906 hvcurveto
          hintmask 11110000
          340.00999450683594 -344 54 156 vvcurveto
          endchar
        </CharString>
        <CharString name="grave">
          -664 187 callgsubr
          555.9900054931641 vstem
          461.99000549316406 1251.979995727539 170 callgsubr
          137 -116.97999572753906 108 -141 169 -83 86 callgsubr
          68 -145 255.02000427246094 -199 -28 callsubr
          -38 rlinecurve
          endchar
        </CharString>
        <CharString name="grave.cap">
          -678 1542.979995727539 437 hstem
          56.99000549316406 512 vstem
          422.99000549316406 10 callsubr
          endchar
        </CharString>
        <CharString name="greater">
          47 211 callsubr
          1102 hstem
          51 callsubr
          951.9900054931641 vstem
          51 callsubr
          1331 rmoveto
          -274 vlineto
          597 -283.00999450683594 -597 -262.97999572753906 rlineto
          -282.00999450683594 vlineto
          952 469.00999450683594 rlineto
          99 callgsubr
          vlineto
          -952 479.00999450683594 rlineto
          endchar
        </CharString>
        <CharString name="greaterequal">
          48 -1 204.97999572753906 hstem
          223.99000549316406 968.9900054931641 vstem
          223.99000549316406 1270.990005493164 rmoveto
          -262 vlineto
          630.0099945068359 -235 -630.0099945068359 -232.99000549316406 rlineto
          -263 vlineto
          969 418 rlineto
          154.99000549316406 vlineto
          -969 420 rlineto
          -1271.990005493164 vmoveto
          969 204.97999572753906 -969 -204.97999572753906 hlineto
          endchar
        </CharString>
        <CharString name="guillemotleft">
          668 110 callgsubr
          234.99000549316406 1514 vstem
          890.9799957275391 1157 rmoveto
          36 callgsubr
          -430.99000549316406 325 430.99000549316406 326 -75 216 rlineto
          858.0099945068359 -216 rmoveto
          -75 216 36 callgsubr
          -431 325 431 326 rlineto
          endchar
        </CharString>
        <CharString name="guillemotright">
          668 110 callgsubr
          238.97999572753906 1514 vstem
          238.97999572753906 940.9900054931641 rmoveto
          431 -326 -431 -325 75.02000427246094 44 callsubr
          -75.02000427246094 -216 rlineto
          858.0099945068359 216 rmoveto
          -75 -216 431 -326 -431 -325 75 44 callsubr
          rlineto
          endchar
        </CharString>
        <CharString name="guilsinglleft">
          -116 110 callgsubr
          234.99000549316406 730.9900054931641 vstem
          965.9799957275391 940.9900054931641 rmoveto
          -75 216 36 callgsubr
          -430.99000549316406 325 430.99000549316406 326 rlineto
          endchar
        </CharString>
        <CharString name="guilsinglright">
          -116 110 callgsubr
          237.99000549316406 730.9900054931641 vstem
          313 1157 rmoveto
          -75 -216 431 -326 -431 -325 75 44 callsubr
          rlineto
          endchar
        </CharString>
        <CharString name="h">
          157 callsubr
          -51 callgsubr
          438 -15 callgsubr
          241 callsubr
          808.9799957275391 vlineto
          -27 callsubr
        </CharString>
        <CharString name="hbar">
          157 callsubr
          134.00999450683594 179.99000549316406 -51 callgsubr
          69 223 180 -223 189 -15 callgsubr
          -189 235 callsubr
          -180 132.02000427246094 -1292.979995727539 -92 callsubr
          808.9799957275391 vlineto
          -27 callsubr
        </CharString>
        <CharString name="hcircumflex">
          157 callsubr
          449.00999450683594 54 -51 callgsubr
          384 vlineto
          87 -48 222 199 110 callsubr
          -276 308 rlineto
          -220 hlineto
          -263 -298 rlineto
          -247.99000549316406 241 callsubr
          808.9799957275391 hlineto
          -27 callsubr
        </CharString>
        <CharString name="hungarumlaut">
          -285 1320.979995727539 500.02000427246094 hstem
          56.99000549316406 986.9900054931641 vstem
          57 1413.979995727539 rmoveto
          127 177 callsubr
          -195 137 -269.97999572753906 -407.02000427246094 rlineto
          519 hmoveto
          122 -93 -61 callsubr
          44 186 217 64 99 rlinecurve
          -196 90 callsubr
          -271.99000549316406 -403 rlineto
          endchar
        </CharString>
        <CharString name="hungarumlaut.cap">
          -358 1552.990005493164 406.99000549316406 hstem
          46.97999572753906 963.0099945068359 vstem
          46.97999572753906 93 callsubr
          162.02000427246094 -115 -65 callsubr
          35 127 140.99000549316406 82 119.00999450683594 rlinecurve
          -229.99000549316406 112 -18 -51.02000427246094 -174 -215 -28.020004272460938 -77 callgsubr
          rlinecurve
          513 hmoveto
          161.02000427246094 -115 81.97999572753906 35 130 140.99000549316406 77 -24 callgsubr
          rlinecurve
          -226 -42 callsubr
          -18 -51 -178 -212 49 callsubr
          endchar
        </CharString>
        <CharString name="hyphen">
          77 callsubr
        </CharString>
        <CharString name="i">
          -76 callgsubr
        </CharString>
        <CharString name="i.cy">
          -76 callgsubr
        </CharString>
        <CharString name="i.dot">
          -76 callgsubr
        </CharString>
        <CharString name="i.uc">
          -72 callgsubr
        </CharString>
        <CharString name="iacute">
          0 1806.990005493164 -56 callgsubr
          vstem
          197 185 callgsubr
          80 101 callsubr
          59 137 rlinecurve
          -214 -5 callsubr
          -23 -248 -66 callgsubr
          endchar
        </CharString>
        <CharString name="ibreve">
          1296.990005493164 51 callsubr
          -56 callgsubr
          vstem
          -32.99000549316406 1683.990005493164 rmoveto
          -211 -35 callsubr
          90 callsubr
          180 callsubr
          236 hhcurveto
          225 142 callsubr
          -35 callsubr
          hvcurveto
          -193 hlineto
          -29 callgsubr
          -5 -12 -25 callsubr
          4 callsubr
          -195.97000122070312 hlineto
          181 callgsubr
          -543.9900054931641 -66 callgsubr
          endchar
        </CharString>
        <CharString name="icircumflex">
          0 1697.990005493164 -56 callgsubr
          vstem
          -65 1324.990005493164 rmoveto
          155.99000549316406 -89 -73 callsubr
          246 233 -246 161 121 callgsubr
          239 -185 -66 callgsubr
          endchar
        </CharString>
        <CharString name="idieresis">
          1308.990005493164 198 callsubr
          hstemhm
          -75 348.97999572753906 -99.989990234375 -92 callsubr
          -100.00001525878906 3 callsubr
          hintmask 00000000
          hintmask 11010000
          -75 1477 rmoveto
          111 callsubr
          100.97999572753906 -8 callgsubr
          230 callgsubr
          63 callgsubr
          -2 callgsubr
          vhcurveto
          460.97999572753906 hmoveto
          111 callsubr
          101 104 79 69 callgsubr
          vhcurveto
          hintmask 10100000
          237 callgsubr
          -337 -66 callgsubr
          endchar
        </CharString>
        <CharString name="igrave">
          0 1806.990005493164 -56 callgsubr
          vstem
          302 37 callgsubr
          33 callsubr
          86 callgsubr
          68 -145 102 callgsubr
          -199 -66 callsubr
          51 callgsubr
          rlinecurve
          -128 216 callsubr
          -66 callgsubr
          endchar
        </CharString>
        <CharString name="ij">
          -26 52 callsubr
          90 callsubr
          379 -341 -92 callsubr
          309.00999450683594 159 callsubr
          -68 callgsubr
          hintmask 00000000
          hintmask 11101000
          794.9900054931641 1477.979995727539 rmoveto
          184 callsubr
          106 92 -78 callsubr
          -104 -95 -45 callsubr
          vhcurveto
          -659 62 callgsubr
          -90 callgsubr
          hintmask 11010100
          38 -337 -66 callgsubr
          382 -1422 rmoveto
          -41 callsubr
          109 callsubr
          endchar
        </CharString>
        <CharString name="ij_acutecomb">
          -26 -507 65 callsubr
          -56 callgsubr
          347.99998474121094 145 callgsubr
          805.9900054931641 1388.990005493164 170 callgsubr
          64 callsubr
          -113 -106 rlinecurve
          -609 -1 170 callgsubr
          108 callsubr
          -214 -5 callsubr
          -23 -248 -66 callgsubr
          382 -1422 rmoveto
          -41 callsubr
          109 callsubr
          endchar
        </CharString>
        <CharString name="imacron">
          1418.990005493164 -47 callgsubr
          -56 callgsubr
          vstem
          34.970001220703125 1624.990005493164 rmoveto
          87 callgsubr
          591.0200042724609 -47 callgsubr
          -591.0200042724609 vlineto
          238 callsubr
          -484.99000549316406 -66 callgsubr
          endchar
        </CharString>
        <CharString name="infinity">
          676 177.99000549316406 211.99000549316406 -207.99000549316406 213.99000549316406 432.99998474121094 219.99000549316406 -212.97999572753906 217 hstemhm
          -28 callsubr
          270 1294.989990234375 272.99000549316406 hintmask 00000000
          hintmask 10101100
          1439.990005493164 1048.990005493164 rmoveto
          -176 -69 callsubr
          -139 -69 callgsubr
          234 callsubr
          -119.99000549316406 rrcurveto
          hintmask 01011100
          2 callgsubr
          -94 -130 -34 callgsubr
          -240 hhcurveto
          -290 -186 -200 -236 -226 163 -214 321 5 hvcurveto
          177.99000549316406 2 139 100 101 239 callgsubr
          rrcurveto
          hintmask 10011100
          -123.99000549316406 92 128 -100 -38 callsubr
          hhcurveto
          300.02000427246094 179 197 239 hvcurveto
          hintmask 10101100
          98 callsubr
          -147 221 -335 -5 vhcurveto
          hintmask 01011100
          -840 -653 rmoveto
          164 callgsubr
          -74 103.02000427246094 99 callsubr
          133 82 85.00999450683594 110.97999572753906 211 callgsubr
          113 -138 -25 callsubr
          147 callgsubr
          hvcurveto
          -115 -86 -87 -62 -94 hhcurveto
          hintmask 10101100
          855 -6 rmoveto
          150 callsubr
          -105 138 126 -75 hvcurveto
          115 84.99000549316406 85.02000427246094 60 94 hhcurveto
          166.99000549316406 74 -95.99000549316406 -118 -134 -77 -91.00999450683594 -117 hvcurveto
          endchar
        </CharString>
        <CharString name="integral">
          -248 -518 212 1778.979995727539 212 hstem
          204.97999572753906 275 128 274 vstem
          104.97999572753906 -386 rmoveto
          -75 37 180 -57 103 hhcurveto
          343.02000427246094 121 268 229 -7 hvcurveto
          -12 397.99000549316406 -380.00999450683594 426.99000549316406 -10 398.00999450683594 rrcurveto
          168 -5 58 103 150 hhcurveto
          94 66 -53 -35 16 hvcurveto
          124 163 rlineto
          71 -34.02000427246094 -9 callgsubr
          -15 callsubr
          -179.02000427246094 hhcurveto
          -338.99000549316406 -133.02000427246094 -225 -268 7 hvcurveto
          10.020004272460938 -397 382 -431 11 -398.99000549316406 rrcurveto
          -168 5 -46 -103 -150 hhcurveto
          -84.00999450683594 182 callsubr
          70.99000549316406 42 -29 hvcurveto
          -91.00999450683594 -193 rlineto
          endchar
        </CharString>
        <CharString name="iogonek">
          23 callgsubr
          1618.000015258789 80 callsubr
          9.990005493164062 245 -107 379 -353 72 callsubr
          hintmask 11010000
          -58 callsubr
          168 callgsubr
          106 92 -78 callsubr
          -104 -95.00999450683594 -45 callsubr
          -9 callgsubr
          -65 callsubr
          -71 102.02000427246094 hvcurveto
          hintmask 11001000
          -74 -1530 rmoveto
          -7 94 84.99000549316406 63 101.00999450683594 66 rrcurveto
          52 1140 -312 -1140 52 hlineto
          hintmask 11100000
          -105 -58 -120.02000427246094 -108 9.009994506835938 -150.02000427246094 83 callgsubr
          hintmask 11001000
          -12 -41.99000549316406 -44 225 callsubr
          54 callsubr
          hvcurveto
          endchar
        </CharString>
        <CharString name="itilde">
          1342.990005493164 -38 callgsubr
          173.99000549316406 311.99000549316406 hintmask 01100000
          -116 1472 rmoveto
          130 callgsubr
          58.99000549316406 56 58 hhcurveto
          hintmask 10100000
          114.02000427246094 58 callgsubr
          hintmask 01100000
          142 callgsubr
          -103.99000549316406 -100 50 callsubr
          -29 callgsubr
          hvcurveto
          289.99000549316406 -332 -66 callgsubr
          endchar
        </CharString>
</ttFont>
